<svg xmlns="http://www.w3.org/2000/svg" viewBox="0 0 128 128"><defs><style>.cls-1{fill:#d4d8e1;}.cls-2{fill:#c7cdd8;}.cls-3{fill:#454b60;}.cls-4{fill:#42455e;}.cls-5{fill:#e2607f;}.cls-6{fill:#9dd5df;}.cls-7{fill:#fbcc88;}.cls-8{fill:#77cacb;}.cls-9{fill:#dd4e6a;}.cls-10{fill:#949aaf;}</style></defs><title>Ambulance</title><g id="Ambulance"><path class="cls-1" d="M127,94.48H1V71.88a8.11,8.11,0,0,1,5.57-7.7L13.19,62l14-28a8.16,8.16,0,0,1,7.28-4.49h82.8a8.12,8.12,0,0,1,8.1,7.68C127.3,71.81,127,58.66,127,94.48Z"/><rect class="cls-2" x="1" y="88.38" width="125.98" height="6.1"/><circle class="cls-3" cx="102.6" cy="94.48" r="12.19"/><circle class="cls-3" cx="25.38" cy="94.48" r="12.19"/><path class="cls-4" d="M102.6,106.67a12.18,12.18,0,0,1-12-14.22c2.23,13.49,21.78,13.48,24,0A12.19,12.19,0,0,1,102.6,106.67Z"/><path class="cls-4" d="M25.38,106.67a12.18,12.18,0,0,1-12-14.22c2.24,13.49,21.79,13.48,24,0A12.18,12.18,0,0,1,25.38,106.67Z"/><polygon class="cls-5" points="66.02 29.46 41.64 29.46 45.7 21.33 61.96 21.33 66.02 29.46"/><polygon class="cls-6" points="45.7 39.62 45.7 61.97 13.19 61.97 24.37 39.62 45.7 39.62"/><path class="cls-7" d="M5.06,74.16H9.13a0,0,0,0,1,0,0V86.35a0,0,0,0,1,0,0H5.06A4.06,4.06,0,0,1,1,82.29V78.22A4.06,4.06,0,0,1,5.06,74.16Z" transform="translate(10.13 160.51) rotate(180)"/><polygon class="cls-5" points="88.37 45.71 96.5 45.71 96.5 37.59 104.63 37.59 104.63 45.71 112.76 45.71 112.76 53.84 104.63 53.84 104.63 61.97 96.5 61.97 96.5 53.84 88.37 53.84 88.37 45.71"/><polygon class="cls-8" points="45.7 55.87 45.7 61.97 13.19 61.97 16.24 55.87 45.7 55.87"/><polygon class="cls-9" points="66.02 29.46 41.64 29.46 43.67 25.39 63.99 25.39 66.02 29.46"/><rect class="cls-9" x="96.5" y="55.87" width="8.13" height="6.1"/><circle class="cls-10" cx="102.61" cy="94.48" r="5"/><circle class="cls-10" cx="25.39" cy="94.48" r="5"/><path class="cls-2" d="M127,71.1H53.84a1,1,0,0,1,0-2H127A1,1,0,0,1,127,71.1Z"/><rect class="cls-2" x="52.84" y="29.46" width="2" height="65.02"/><path class="cls-10" d="M45.71,71.1H41.65a1,1,0,0,1,0-2h4.06A1,1,0,0,1,45.71,71.1Z"/></g></svg>