<svg xmlns="http://www.w3.org/2000/svg" viewBox="0 0 128 128"><defs><style>.cls-1{fill:#d1a788;}.cls-2{fill:#cba07a;}.cls-3{fill:#9b756d;}</style></defs><title>Band Aids</title><g id="Band_Aids" data-name="Band Aids"><path class="cls-1" d="M127,102.54c0,21.86-26.46,32.47-41.67,17.26C1.21,35.73,5.49,41,2.92,34.8A24.4,24.4,0,0,1,42.72,8.2c84.35,84.35,79.86,79,82.36,85A24.26,24.26,0,0,1,127,102.54Z"/><path class="cls-1" d="M25.46,127C3.75,127-7.08,100.57,8.2,85.28L85.28,8.21a24.39,24.39,0,0,1,17.26-7.15c21.71,0,32.54,26.38,17.26,41.66L42.72,119.8A24.39,24.39,0,0,1,25.46,127Z"/><path class="cls-1" d="M127,25.46a24.51,24.51,0,0,1-7.15,17.26L42.72,119.8C27.51,135,1.05,124.39,1.05,102.54A24.52,24.52,0,0,1,8.2,85.28L85.28,8.2C100.7-7.22,127,3.91,127,25.46Z"/><path class="cls-2" d="M85.28,119.8,61,95.48,95.47,61l3,3L67.05,95.48l18.23,18.23c14.39,14.39,39,5.74,41.46-14.21C130,122.19,101.75,136.27,85.28,119.8Z"/><path class="cls-2" d="M119.8,42.72,42.72,119.8C26.29,136.23-2,122.23,1.26,99.5c2.45,20,27.07,28.6,41.46,14.21,84.35-84.35,79.83-78.88,82.36-85a23.94,23.94,0,0,0,1.66-6.29A24.39,24.39,0,0,1,119.8,42.72Z"/><path class="cls-2" d="M61.14,26.62,32.71,55.05a4.31,4.31,0,0,1-6.09,0L8.2,36.63A24.4,24.4,0,0,1,1.26,22.42,24.16,24.16,0,0,0,2.92,34.8C5.36,40.68,6.57,41.09,29.48,64L64,29.48Z"/><rect class="cls-3" x="48.21" y="43.9" width="31.59" height="40.2" rx="8.54" transform="translate(64 -26.51) rotate(45)"/><path class="cls-3" d="M96,17.26a1.5,1.5,0,0,1-3,0A1.5,1.5,0,0,1,96,17.26Z"/><path class="cls-3" d="M104.11,25.39a1.5,1.5,0,0,1-3,0A1.5,1.5,0,0,1,104.11,25.39Z"/><path class="cls-3" d="M112.24,33.52a1.5,1.5,0,0,1-3,0A1.5,1.5,0,0,1,112.24,33.52Z"/><path class="cls-3" d="M79.73,33.52a1.5,1.5,0,0,1-3,0A1.5,1.5,0,0,1,79.73,33.52Z"/><path class="cls-3" d="M87.85,41.65a1.5,1.5,0,0,1-3,0A1.5,1.5,0,0,1,87.85,41.65Z"/><path class="cls-3" d="M96,49.77a1.5,1.5,0,0,1-3,0A1.5,1.5,0,0,1,96,49.77Z"/><path class="cls-3" d="M91.92,29.45a1.5,1.5,0,0,1-3,0A1.5,1.5,0,0,1,91.92,29.45Z"/><path class="cls-3" d="M100.05,37.58a1.5,1.5,0,0,1-3,0A1.5,1.5,0,0,1,100.05,37.58Z"/><path class="cls-3" d="M35,78.23a1.5,1.5,0,0,1-3,0A1.5,1.5,0,0,1,35,78.23Z"/><path class="cls-3" d="M43.15,86.35a1.5,1.5,0,0,1-3,0A1.5,1.5,0,0,1,43.15,86.35Z"/><path class="cls-3" d="M51.27,94.48a1.5,1.5,0,0,1-3,0A1.5,1.5,0,0,1,51.27,94.48Z"/><path class="cls-3" d="M18.76,94.48a1.5,1.5,0,0,1-3,0A1.5,1.5,0,0,1,18.76,94.48Z"/><path class="cls-3" d="M26.89,102.61a1.5,1.5,0,0,1-3,0A1.5,1.5,0,0,1,26.89,102.61Z"/><path class="cls-3" d="M35,110.74a1.5,1.5,0,0,1-3,0A1.5,1.5,0,0,1,35,110.74Z"/><path class="cls-3" d="M31,90.42a1.5,1.5,0,0,1-3,0A1.5,1.5,0,0,1,31,90.42Z"/><path class="cls-3" d="M39.08,98.55a1.5,1.5,0,0,1-3,0A1.5,1.5,0,0,1,39.08,98.55Z"/><path class="cls-3" d="M32,17.26a1.5,1.5,0,0,0,3,0A1.5,1.5,0,0,0,32,17.26Z"/><path class="cls-3" d="M23.89,25.39a1.5,1.5,0,0,0,3,0A1.5,1.5,0,0,0,23.89,25.39Z"/><path class="cls-3" d="M15.76,33.52a1.5,1.5,0,0,0,3,0A1.5,1.5,0,0,0,15.76,33.52Z"/><path class="cls-3" d="M48.27,33.52a1.5,1.5,0,0,0,3,0A1.5,1.5,0,0,0,48.27,33.52Z"/><path class="cls-3" d="M40.15,41.65a1.5,1.5,0,0,0,3,0A1.5,1.5,0,0,0,40.15,41.65Z"/><path class="cls-3" d="M32,49.77a1.5,1.5,0,0,0,3,0A1.5,1.5,0,0,0,32,49.77Z"/><path class="cls-3" d="M36.08,29.45a1.5,1.5,0,0,0,3,0A1.5,1.5,0,0,0,36.08,29.45Z"/><path class="cls-3" d="M28,37.58a1.5,1.5,0,0,0,3,0A1.5,1.5,0,0,0,28,37.58Z"/><path class="cls-3" d="M93,78.23a1.5,1.5,0,0,0,3,0A1.5,1.5,0,0,0,93,78.23Z"/><path class="cls-3" d="M84.85,86.35a1.5,1.5,0,0,0,3,0A1.5,1.5,0,0,0,84.85,86.35Z"/><path class="cls-3" d="M76.73,94.48a1.5,1.5,0,0,0,3,0A1.5,1.5,0,0,0,76.73,94.48Z"/><path class="cls-3" d="M109.24,94.48a1.5,1.5,0,0,0,3,0A1.5,1.5,0,0,0,109.24,94.48Z"/><path class="cls-3" d="M101.11,102.61a1.5,1.5,0,0,0,3,0A1.5,1.5,0,0,0,101.11,102.61Z"/><path class="cls-3" d="M93,110.74a1.5,1.5,0,0,0,3,0A1.5,1.5,0,0,0,93,110.74Z"/><path class="cls-3" d="M97.05,90.42a1.5,1.5,0,0,0,3,0A1.5,1.5,0,0,0,97.05,90.42Z"/><path class="cls-3" d="M88.92,98.55a1.5,1.5,0,0,0,3,0A1.5,1.5,0,0,0,88.92,98.55Z"/></g></svg>