<svg xmlns="http://www.w3.org/2000/svg" viewBox="0 0 128 128"><defs><style>.cls-1{fill:#e2607f;}.cls-2{fill:#dd4e6a;}.cls-3{fill:#949aaf;}.cls-4{fill:#8288a1;}.cls-5{fill:#d4d8e1;}.cls-6{fill:#fbcc88;}.cls-7{fill:#c7cdd8;}.cls-8{fill:#f6b756;}.cls-9{fill:none;}.cls-10{fill:#fff;}</style></defs><title>Caduceus</title><g id="Caduceus"><circle class="cls-1" cx="64" cy="15.23" r="14.23"/><path class="cls-2" d="M64,29.45c-9.09,0-15.53-8.44-14.06-16.26a14.2,14.2,0,0,0,28.12,0C79.53,21,73.11,29.45,64,29.45Z"/><path class="cls-3" d="M70.1,35.55c0,8.25.51-4.38-3.13,72-.92,19-.59,18.25-1.77,19a2.05,2.05,0,0,1-2.58-.14c-.93-.75-.68-.3-1.3-13,0-6.66-3.42-62.07-3.42-77.91a6.1,6.1,0,1,1,12.2,0Z"/><path class="cls-4" d="M68.08,84.1c-.48,9.89-.36,7.29-.56,11.68L60.42,95c-.2-4.86-.08-2.2-.57-12.15C61.36,83.05,66.11,83.76,68.08,84.1Z"/><path class="cls-5" d="M127,29.45a8.13,8.13,0,0,1-8.13,8.13,8.13,8.13,0,0,1-8.13,8.13,8.13,8.13,0,0,1-8.13,8.13H69.51l.4-8.15a14.69,14.69,0,0,0,12.38-8.11,14.72,14.72,0,0,1,13.15-8.13Z"/><path class="cls-5" d="M58.09,45.69a14.71,14.71,0,0,1-12.38-8.11,14.72,14.72,0,0,0-13.15-8.13H1a8.13,8.13,0,0,0,8.13,8.13,8.13,8.13,0,0,0,8.13,8.13,8.13,8.13,0,0,0,8.13,8.13h33.1"/><path class="cls-5" d="M58.49,53.84H25.39a8.13,8.13,0,0,1-8.13-8.13,8.13,8.13,0,0,1-8.13-8.13A8.13,8.13,0,0,1,1,29.45H32.56a14.72,14.72,0,0,1,13.15,8.13,14.68,14.68,0,0,0,12.38,8.11Z"/><path class="cls-6" d="M88,69c-4.83,2.66-13.34,3.46-19.39,4.16L69,64.89c16.15-1.76,14.3-3.56,17.23-3.27A4,4,0,0,1,88,69Z"/><path class="cls-6" d="M82.29,94.48c0,8-7.51,11.16-15.32,13.11l.4-8.51c2.34-.7,6.79-2.17,6.79-4.6C71,89.89,39.61,93.75,39.61,78.23c0-8.71,10.83-10.85,19.45-12.12l.39,8.19c-2.16.33-11.71,1.75-11.71,3.93,0,3.6,14.57,4.88,20.34,5.87C75,85.32,82.29,87.54,82.29,94.48Z"/><path class="cls-4" d="M66.38,120c-.23,4.85,0,5.85-1.18,6.62-3.92-.18-3.22.8-3.66-8.61C63.17,118.69,64.83,119.38,66.38,120Z"/><path class="cls-6" d="M73.86,122.91c-9.67-.75-30.18.54-30.18-10.14,0-8.08,9.22-10.21,17-12l.4,8.23c-1.6.41-9.3,2.17-9.3,3.78C52.73,114.93,71.61,122.06,73.86,122.91Z"/><path class="cls-7" d="M39.61,43.68H18.38a5.61,5.61,0,0,1-5.5-4c-.05-.2-.65,0,18.6,0a2,2,0,0,0,0-4.06H10.89a6.3,6.3,0,0,1-6.41-6c0-.2.2-.07-3.48-.07a8.15,8.15,0,0,0,8.13,8.13,8.14,8.14,0,0,0,8.13,8.13,8.13,8.13,0,0,0,8.13,8.13h3.47A8.1,8.1,0,0,1,21,47.74H39.61A2,2,0,0,0,39.61,43.68Z"/><path class="cls-7" d="M123.52,29.45a6.3,6.3,0,0,1-6.41,6.1H96.52a2,2,0,0,0,0,4.06h18.61c-1,4-5.23,4.07-5.51,4.07H88.39a2,2,0,0,0,0,4.06H107a8.1,8.1,0,0,1-7.86,6.1h3.47a8.13,8.13,0,0,0,8.13-8.13,8.15,8.15,0,0,0,8.13-8.13A8.15,8.15,0,0,0,127,29.45Z"/><path class="cls-7" d="M58.09,45.69l.4,8.15H54.41l-.43-9A14.77,14.77,0,0,0,58.09,45.69Z"/><path class="cls-7" d="M74,44.88l-.43,9H69.51l.4-8.15A14.77,14.77,0,0,0,74,44.88Z"/><path class="cls-8" d="M59.45,74.3c-4.66.7-4,.94-4.07.21L55,66.78c1.3-.26,2.66-.46,4-.67Z"/><path class="cls-8" d="M61.11,109c-1.22.31-2.66.67-4,1.06-.05-1.16,0,.43-.41-8.33,1.35-.35,2.71-.65,4-1Z"/><path class="cls-8" d="M67.37,99.08a24.72,24.72,0,0,0,4.15-1.59c-.1,2.26,0,.37-.43,8.92-1.34.45-2.74.84-4.12,1.18Z"/><path class="cls-8" d="M73.1,64.39c0,1,0-.41-.4,8.27l-4.11.48L69,64.89C70.3,64.75,71.7,64.59,73.1,64.39Z"/><path class="cls-9" d="M74.16,96.52l-18.29-2"/><path class="cls-10" d="M63,21.32V9.13a1,1,0,0,1,2,0V21.32A1,1,0,0,1,63,21.32Z"/><path class="cls-10" d="M70.1,16.23H57.9a1,1,0,0,1,0-2H70.1A1,1,0,0,1,70.1,16.23Z"/></g></svg>