<svg xmlns="http://www.w3.org/2000/svg" viewBox="0 0 128 128"><defs><style>.cls-1{fill:#d4d8e1;}.cls-2{fill:#c7cdd8;}.cls-3{fill:#fbcc88;}.cls-4{fill:#f6b756;}</style></defs><title>Capsule</title><g id="Capsule"><rect class="cls-1" x="27.42" y="1" width="73.16" height="126" rx="8.13"/><path class="cls-2" d="M90.42,20.91c0,3.14-1.33,3.71-10.51,12.89-4.45,4.45-11.73-.59-9.43-6.08a5.79,5.79,0,0,0,5.37,3.7c3.13,0,3.71-1.33,12.88-10.51A5.31,5.31,0,0,0,90,18.86,5.54,5.54,0,0,1,90.42,20.91Z"/><path class="cls-2" d="M90.42,49.36c0,3.14-1.33,3.71-10.51,12.89-4.45,4.45-11.73-.59-9.43-6.08a5.78,5.78,0,0,0,5.37,3.7c3.13,0,3.71-1.33,12.88-10.51a5.31,5.31,0,0,0,1.3-2A5.54,5.54,0,0,1,90.42,49.36Z"/><path class="cls-2" d="M57.9,20.91c0,3.14-1.33,3.71-10.5,12.89-4.46,4.45-11.74-.59-9.43-6.08a5.77,5.77,0,0,0,5.36,3.7c3.14,0,3.71-1.33,12.89-10.51a5.43,5.43,0,0,0,1.3-2.05A5.75,5.75,0,0,1,57.9,20.91Z"/><path class="cls-2" d="M57.9,49.36c0,3.14-1.33,3.71-10.5,12.89-4.46,4.45-11.74-.59-9.43-6.08a5.76,5.76,0,0,0,5.36,3.7c3.14,0,3.71-1.33,12.89-10.51a5.43,5.43,0,0,0,1.3-2A5.75,5.75,0,0,1,57.9,49.36Z"/><path class="cls-2" d="M90.42,77.82c0,3.13-1.33,3.7-10.51,12.88-4.45,4.45-11.73-.58-9.43-6.08a5.78,5.78,0,0,0,5.37,3.7c3.13,0,3.71-1.33,12.88-10.5A5.27,5.27,0,0,0,90,75.76,5.55,5.55,0,0,1,90.42,77.82Z"/><path class="cls-2" d="M90.42,106.27c0,3.13-1.33,3.71-10.51,12.88-4.45,4.45-11.73-.58-9.43-6.07a5.79,5.79,0,0,0,5.37,3.69c3.13,0,3.71-1.33,12.88-10.5a5.27,5.27,0,0,0,1.3-2.06A5.59,5.59,0,0,1,90.42,106.27Z"/><path class="cls-2" d="M57.9,77.82c0,3.13-1.33,3.7-10.5,12.88-4.46,4.45-11.74-.58-9.43-6.08a5.76,5.76,0,0,0,5.36,3.7c3.14,0,3.71-1.33,12.89-10.5a5.39,5.39,0,0,0,1.3-2.06A5.76,5.76,0,0,1,57.9,77.82Z"/><path class="cls-2" d="M57.9,106.27c0,3.13-1.33,3.71-10.5,12.88-4.46,4.45-11.74-.58-9.43-6.07a5.76,5.76,0,0,0,5.36,3.69c3.14,0,3.71-1.33,12.89-10.5a5.39,5.39,0,0,0,1.3-2.06A5.8,5.8,0,0,1,57.9,106.27Z"/><path class="cls-2" d="M100.58,112.77v6.1A8.13,8.13,0,0,1,92.45,127H35.55a8.13,8.13,0,0,1-8.13-8.13v-6.1a8.12,8.12,0,0,0,8.13,8.13h56.9A8.12,8.12,0,0,0,100.58,112.77Z"/><path class="cls-3" d="M75.84,31.48a5.76,5.76,0,0,1-4.06-9.81c8.93-8.93,9.72-10.51,12.89-10.51A5.76,5.76,0,0,1,88.74,21C79.8,29.91,79,31.48,75.84,31.48Z"/><path class="cls-3" d="M75.84,59.94a5.76,5.76,0,0,1-4.06-9.82c8.93-8.93,9.72-10.51,12.89-10.51a5.76,5.76,0,0,1,4.07,9.82C79.8,58.36,79,59.94,75.84,59.94Z"/><path class="cls-3" d="M43.33,31.48a5.76,5.76,0,0,1-4.07-9.81C48.2,12.74,49,11.16,52.16,11.16A5.76,5.76,0,0,1,56.22,21C47.29,29.91,46.5,31.48,43.33,31.48Z"/><path class="cls-3" d="M43.33,59.94a5.76,5.76,0,0,1-4.07-9.82C48.2,41.19,49,39.61,52.16,39.61a5.76,5.76,0,0,1,4.06,9.82C47.29,58.36,46.5,59.94,43.33,59.94Z"/><path class="cls-3" d="M75.84,88.39a5.76,5.76,0,0,1-4.06-9.82c8.93-8.93,9.72-10.51,12.89-10.51a5.76,5.76,0,0,1,4.07,9.82C79.8,86.81,79,88.39,75.84,88.39Z"/><path class="cls-3" d="M75.84,116.84A5.76,5.76,0,0,1,71.78,107c8.93-8.94,9.72-10.51,12.89-10.51a5.76,5.76,0,0,1,4.07,9.81C79.8,115.26,79,116.84,75.84,116.84Z"/><path class="cls-3" d="M43.33,88.39a5.76,5.76,0,0,1-4.07-9.82C48.2,69.64,49,68.06,52.16,68.06a5.76,5.76,0,0,1,4.06,9.82C47.29,86.81,46.5,88.39,43.33,88.39Z"/><path class="cls-3" d="M43.33,116.84A5.76,5.76,0,0,1,39.26,107C48.2,98.09,49,96.52,52.16,96.52a5.76,5.76,0,0,1,4.06,9.81C47.29,115.26,46.5,116.84,43.33,116.84Z"/><path class="cls-4" d="M90.42,16.91c0,3.14-1.33,3.71-10.51,12.89-4.45,4.45-11.73-.59-9.43-6.08a5.79,5.79,0,0,0,5.37,3.7c3.13,0,3.71-1.33,12.88-10.51A5.31,5.31,0,0,0,90,14.86,5.54,5.54,0,0,1,90.42,16.91Z"/><path class="cls-4" d="M90.42,45.36c0,3.14-1.33,3.71-10.51,12.89-4.45,4.45-11.73-.59-9.43-6.08a5.78,5.78,0,0,0,5.37,3.7c3.13,0,3.71-1.33,12.88-10.51a5.31,5.31,0,0,0,1.3-2A5.54,5.54,0,0,1,90.42,45.36Z"/><path class="cls-4" d="M57.9,16.91c0,3.14-1.33,3.71-10.5,12.89-4.46,4.45-11.74-.59-9.43-6.08a5.77,5.77,0,0,0,5.36,3.7c3.14,0,3.71-1.33,12.89-10.51a5.43,5.43,0,0,0,1.3-2.05A5.75,5.75,0,0,1,57.9,16.91Z"/><path class="cls-4" d="M57.9,45.36c0,3.14-1.33,3.71-10.5,12.89-4.46,4.45-11.74-.59-9.43-6.08a5.76,5.76,0,0,0,5.36,3.7c3.14,0,3.71-1.33,12.89-10.51a5.43,5.43,0,0,0,1.3-2A5.75,5.75,0,0,1,57.9,45.36Z"/><path class="cls-4" d="M90.42,73.82c0,3.13-1.33,3.7-10.51,12.88-4.45,4.45-11.73-.58-9.43-6.08a5.78,5.78,0,0,0,5.37,3.7c3.13,0,3.71-1.33,12.88-10.5A5.27,5.27,0,0,0,90,71.76,5.55,5.55,0,0,1,90.42,73.82Z"/><path class="cls-4" d="M90.42,102.27c0,3.13-1.33,3.71-10.51,12.88-4.45,4.45-11.73-.58-9.43-6.07a5.79,5.79,0,0,0,5.37,3.69c3.13,0,3.71-1.33,12.88-10.5a5.27,5.27,0,0,0,1.3-2.06A5.59,5.59,0,0,1,90.42,102.27Z"/><path class="cls-4" d="M57.9,73.82c0,3.13-1.33,3.7-10.5,12.88-4.46,4.45-11.74-.58-9.43-6.08a5.76,5.76,0,0,0,5.36,3.7c3.14,0,3.71-1.33,12.89-10.5a5.39,5.39,0,0,0,1.3-2.06A5.76,5.76,0,0,1,57.9,73.82Z"/><path class="cls-4" d="M57.9,102.27c0,3.13-1.33,3.71-10.5,12.88-4.46,4.45-11.74-.58-9.43-6.07a5.76,5.76,0,0,0,5.36,3.69c3.14,0,3.71-1.33,12.89-10.5a5.39,5.39,0,0,0,1.3-2.06A5.8,5.8,0,0,1,57.9,102.27Z"/></g></svg>