<svg xmlns="http://www.w3.org/2000/svg" viewBox="0 0 128 128"><defs><style>.cls-1{fill:#d4d8e1;}.cls-2{fill:#c7cdd8;}.cls-3{fill:#9dd5df;}.cls-4{fill:#77cacb;}.cls-5{fill:#949aaf;}.cls-6{fill:#8288a1;}.cls-7{fill:#adb3c4;}.cls-8{fill:#e2607f;}.cls-9{fill:#fbcc88;}</style></defs><title>Cardiogram</title><g id="Cardiogram"><rect class="cls-1" x="1" y="1" width="126" height="117.87" rx="4.06"/><path class="cls-2" d="M127,108.71v6.1a4.08,4.08,0,0,1-4.06,4.06H5.06A4.08,4.08,0,0,1,1,114.81v-6.1a4.07,4.07,0,0,0,4.06,4.06H122.94A4.07,4.07,0,0,0,127,108.71Z"/><rect class="cls-3" x="9.13" y="9.13" width="109.74" height="81.29"/><rect class="cls-4" x="9.13" y="84.32" width="109.74" height="6.1"/><rect class="cls-5" x="13.19" y="98.55" width="20.32" height="12.19"/><rect class="cls-6" x="21.32" y="98.55" width="4.06" height="12.19"/><circle class="cls-5" cx="108.71" cy="104.65" r="6.1"/><circle class="cls-5" cx="49.77" cy="106.68" r="4.06"/><circle class="cls-5" cx="68.06" cy="106.68" r="4.06"/><rect class="cls-7" x="9.13" y="118.87" width="109.74" height="8.13"/><path class="cls-5" d="M90.42,103.61h-6.1a1,1,0,0,1,0-2h6.1A1,1,0,0,1,90.42,103.61Z"/><path class="cls-5" d="M90.42,111.74h-6.1a1,1,0,0,1,0-2h6.1A1,1,0,0,1,90.42,111.74Z"/><path class="cls-8" d="M94.48,28.42H86.35a1,1,0,0,1-1-1V19.29a1,1,0,0,1,1-1h8.13a1,1,0,0,1,1,1v8.13A1,1,0,0,1,94.48,28.42Zm-7.13-2h6.13V20.29H87.35Z"/><path class="cls-8" d="M93.48,35.55V27.42a1,1,0,0,1,2,0v8.13A1,1,0,0,1,93.48,35.55Z"/><path class="cls-8" d="M110.74,36.55h-8.13a1,1,0,0,1-1-1V27.42a1,1,0,0,1,1-1h8.13a1,1,0,0,1,1,1v8.13A1,1,0,0,1,110.74,36.55Zm-7.13-2h6.13V28.42h-6.13Z"/><path class="cls-8" d="M101.61,27.42V19.29a1,1,0,0,1,2,0v8.13A1,1,0,0,1,101.61,27.42Z"/><path class="cls-8" d="M110.74,20.29h-8.13a1,1,0,0,1,0-2h8.13A1,1,0,0,1,110.74,20.29Z"/><path class="cls-8" d="M94.48,36.55H86.35a1,1,0,0,1,0-2h8.13A1,1,0,0,1,94.48,36.55Z"/><path class="cls-5" d="M110.74,56.87h-8.13a1,1,0,0,1,0-2h8.13A1,1,0,0,1,110.74,56.87Z"/><path class="cls-5" d="M94.48,56.87H86.35a1,1,0,0,1,0-2h8.13A1,1,0,0,1,94.48,56.87Z"/><path class="cls-5" d="M110.74,67H86.35a1,1,0,0,1,0-2h24.39A1,1,0,0,1,110.74,67Z"/><path class="cls-5" d="M102.61,77.19H86.35a1,1,0,0,1,0-2h16.26A1,1,0,0,1,102.61,77.19Z"/><path class="cls-9" d="M38.12,49.6c-.29.22-.37.16-4,.16L28.31,61.4A1,1,0,0,1,26.42,61V42.21c-4.5,7.5-4.32,7.55-5.1,7.55H9.13v-2H20.76l5.8-9.68a1,1,0,0,1,1.86.52V56.72l4.2-8.41c.37-.75.76-.55,5-.55A1,1,0,0,1,38.12,49.6Z"/><path class="cls-9" d="M43.68,62a1,1,0,0,1-1-1V42.21l-4.24,7.06a1,1,0,0,1-1.72-1l6.1-10.16a1,1,0,0,1,1.86.52V56.71c4.52-9.05,4.25-9,5.09-9h4.07a1,1,0,0,1,0,2H50.39C44,62.51,44.53,62,43.68,62Z"/><path class="cls-9" d="M59.94,62a1,1,0,0,1-1-1V42.21L54.7,49.27a1,1,0,0,1-1.72-1l6.1-10.16a1,1,0,0,1,1.86.52V56.71c4.52-9.05,4.24-9,5.09-9h12.2a1,1,0,0,1,0,2H66.65C60.27,62.51,60.79,62,59.94,62Z"/></g></svg>