<svg xmlns="http://www.w3.org/2000/svg" viewBox="0 0 128 128"><defs><style>.cls-1{fill:#9b756d;}.cls-2{fill:#d1a788;}.cls-3{fill:#949aaf;}.cls-4{fill:#8a6762;}</style></defs><title>Crutches</title><g id="Crutches"><path class="cls-1" d="M37.58,122.94V127H29.45v-4.06C29.45,117.53,37.58,117.61,37.58,122.94Z"/><path class="cls-1" d="M98.55,122.94V127H90.42v-4.06C90.42,117.53,98.55,117.61,98.55,122.94Z"/><rect class="cls-2" x="19.29" y="37.58" width="28.45" height="8.13"/><rect class="cls-2" x="80.26" y="37.58" width="28.45" height="8.13"/><path class="cls-3" d="M33.52,99.55a5.07,5.07,0,0,1-5.07-5.07v-14c-12-24-10.16-23.1-10.16-67.3a1,1,0,0,1,2,0c0,44.1-1.81,42.89,10.06,66.62.15.3.1-.83.1,14.67a3.07,3.07,0,1,0,6.13,0c0-15.57,0-14.37.11-14.67,11.88-23.76,10.05-22.5,10.05-66.62a1,1,0,0,1,2,0c0,43.51,1.91,43.18-10.16,67.3v14A5.07,5.07,0,0,1,33.52,99.55Z"/><path class="cls-3" d="M32.52,118.87V98.55a1,1,0,0,1,2,0v20.32A1,1,0,0,1,32.52,118.87Z"/><path class="cls-3" d="M39.61,83.29H27.42a1,1,0,0,1,0-2H39.61A1,1,0,0,1,39.61,83.29Z"/><path class="cls-3" d="M94.48,99.55a5.07,5.07,0,0,1-5.06-5.07v-14c-12-24-10.16-23.1-10.16-67.3a1,1,0,0,1,2,0c0,44.1-1.81,42.89,10,66.62.16.3.11-.83.11,14.67a3.07,3.07,0,1,0,6.13,0c0-15.57,0-14.37.1-14.67,11.89-23.76,10.06-22.5,10.06-66.62a1,1,0,0,1,2,0c0,43.51,1.9,43.18-10.16,67.3v14A5.07,5.07,0,0,1,94.48,99.55Z"/><path class="cls-3" d="M93.48,118.87V98.55a1,1,0,0,1,2,0v20.32A1,1,0,0,1,93.48,118.87Z"/><path class="cls-3" d="M100.58,83.29H88.39a1,1,0,0,1,0-2h12.19A1,1,0,0,1,100.58,83.29Z"/><path class="cls-1" d="M49.78,1H17.26c-6.9,0-4.6,12.19,4.07,12.19H45.71C54.42,13.19,56.65,1,49.78,1Z"/><path class="cls-1" d="M110.74,1H78.23c-6.91,0-4.61,12.19,4.06,12.19h24.39C115.38,13.19,117.62,1,110.74,1Z"/><path class="cls-4" d="M45.71,13.19H21.33c-5.95,0-8.9-5.74-7.94-9.34a8.07,8.07,0,0,0,7.94,6.34H45.71a8,8,0,0,0,7.93-6.32C54.6,7.47,51.67,13.19,45.71,13.19Z"/><path class="cls-4" d="M106.68,13.19H82.29c-6,0-8.9-5.74-7.93-9.34a8.06,8.06,0,0,0,7.93,6.34h24.39a8,8,0,0,0,7.93-6.32C115.57,7.47,112.64,13.19,106.68,13.19Z"/></g></svg>