<svg xmlns="http://www.w3.org/2000/svg" viewBox="0 0 128 128"><defs><style>.cls-1{fill:#d4d8e1;}.cls-2{fill:#949aaf;}.cls-3{fill:#c7cdd8;}.cls-4{fill:#f2c4b0;}.cls-5{fill:#eab39b;}.cls-6{fill:#7aa8d7;}.cls-7{fill:#5b8dc9;}.cls-8{fill:#9b756d;}.cls-9{fill:#8a6762;}.cls-10{fill:#42455e;}.cls-11{fill:#d96bb0;}.cls-12{fill:#454b60;}</style></defs><title>Doctor</title><g id="Doctor"><path class="cls-1" d="M112.71,127H15.29c1.3-7.79,2.76-16.53,4.16-25A28.53,28.53,0,0,1,41.29,78.9c4.23-1,10.31-.65,39.6-.65A28.45,28.45,0,0,1,108.55,102C110,110.44,111.41,119.16,112.71,127Z"/><circle class="cls-2" cx="39.61" cy="106.68" r="6.1"/><path class="cls-3" d="M82.25,78.31l-3.15,19L60.73,86.81l8.58-8.58C81.84,78.27,80.94,78.22,82.25,78.31Z"/><polygon class="cls-3" points="112.71 126.96 15.29 126.96 16.31 120.87 111.69 120.87 112.71 126.96"/><polygon class="cls-3" points="80.24 78.25 72.12 126.96 55.88 126.96 47.76 78.25 80.24 78.25"/><path class="cls-4" d="M88.35,23.84v24a24.35,24.35,0,0,1-48.7,0v-24Z"/><path class="cls-5" d="M88.35,43.75v4.06a24.35,24.35,0,0,1-48.7,0V43.75A24.28,24.28,0,0,0,46.77,61C62,76.16,88.35,65.52,88.35,43.75Z"/><path class="cls-5" d="M39.65,23.84V42.55a16.32,16.32,0,0,0,10-13H78.36a16.26,16.26,0,0,0,10,13V23.84Z"/><path class="cls-4" d="M39.65,38.05V49.84h-2c-6,0-8-7.68-4.06-10.62"/><path class="cls-4" d="M94.44,39.22a6.07,6.07,0,0,1,.25,8.83c-2.06,2.06-4.26,1.79-6.34,1.79V38.05"/><path class="cls-3" d="M67.27,86.81,48.9,97.3l-3.14-19c2.61-.14,6.43-.16,12.91-.13Z"/><path class="cls-1" d="M64,86.37,50.4,94.14,47.76,78.25h8.12Z"/><path class="cls-4" d="M72.12,70.76v7.49L64,86.37l-8.12-8.12V70.76A24.21,24.21,0,0,0,72.12,70.76Z"/><path class="cls-1" d="M80.24,78.25,77.6,94.14,64,86.37l8.12-8.12Z"/><path class="cls-6" d="M70.82,90.26l-1.48,4.43a5.63,5.63,0,0,1-10.68,0c-.23-.71,0,.09-1.48-4.43L64,86.37C69.11,89.28,67.37,88.28,70.82,90.26Z"/><path class="cls-6" d="M71.61,127H56.39c1-7.76.44-3.61,3-24.4.66-5.32,8.48-5.33,9.14,0C71.11,122.82,70.64,119.08,71.61,127Z"/><path class="cls-7" d="M71.61,127H56.39c1-7.76.44-3.61,3-24.4.66-5.32,8.48-5.33,9.14,0C71.11,122.82,70.64,119.08,71.61,127Z"/><path class="cls-8" d="M94.44,39.69A12.18,12.18,0,0,1,82.27,27.51v-2a12.17,12.17,0,0,0,11.06-7.1C94.72,21.33,94.44,21.71,94.44,39.69Z"/><path class="cls-9" d="M94.44,35.69v4A12.18,12.18,0,0,1,82.27,27.51c0-2.4-.06-2,.16-2A12.18,12.18,0,0,0,94.44,35.69Z"/><path class="cls-10" d="M94.45,31.59V26.5C94.47,27.87,94.46,29.54,94.45,31.59Z"/><path class="cls-8" d="M94.44,13.71A12.2,12.2,0,0,1,82.27,25.48H33.56v-2A12.18,12.18,0,0,1,45.73,11.28C55.69-1.21,69.51,1.13,81.64,1.13,88.62,1.13,94.67,6.73,94.44,13.71Z"/><path class="cls-8" d="M45.73,11.28V27.51A12.18,12.18,0,0,1,33.56,39.69V23.45A12.18,12.18,0,0,1,45.73,11.28Z"/><path class="cls-9" d="M82.27,25.48H45.73v2A12.18,12.18,0,0,1,33.56,39.69V35.63A12.18,12.18,0,0,0,45.73,23.45v-2H82.27a12.2,12.2,0,0,0,12-10.09A12.16,12.16,0,0,1,82.27,25.48Z"/><path class="cls-7" d="M64,86.37c-5.11,2.91-3.37,1.91-6.82,3.89L58.5,94.2,64,91.06l5.5,3.14,1.32-3.94Z"/><path class="cls-6" d="M70.86,120.87H57.14c.65-5.21.21-1.66,2.29-18.31.66-5.32,8.48-5.33,9.14,0C70.62,119,70.19,115.47,70.86,120.87Z"/><path class="cls-11" d="M59,60.89a1,1,0,0,1,1.42-1.41,5.11,5.11,0,0,0,7.2,0A1,1,0,0,1,69,60.89,7.1,7.1,0,0,1,59,60.89Z"/><path class="cls-12" d="M50.81,43.68v-2a1,1,0,0,1,2,0v2A1,1,0,0,1,50.81,43.68Z"/><path class="cls-12" d="M73.16,43.68v-2a1,1,0,0,1,2,0v2A1,1,0,0,1,73.16,43.68Z"/><path class="cls-2" d="M98.55,117.84H94.48a1,1,0,0,1,0-2h3.07v-9.16a7.13,7.13,0,1,0-14.26,0v9.16h3.06a1,1,0,0,1,0,2H82.29a1,1,0,0,1-1-1V106.68a9.13,9.13,0,1,1,18.26,0v10.16A1,1,0,0,1,98.55,117.84Z"/><path class="cls-2" d="M46.86,78.29a7.12,7.12,0,0,0-6.25,7.06v15.23a1,1,0,0,1-2,0V85.35a9.14,9.14,0,0,1,2.68-6.45A29,29,0,0,1,46.86,78.29Z"/><path class="cls-2" d="M91.42,87.39V98.55a1,1,0,0,1-2,0V87.39a9.18,9.18,0,0,0-8.53-9.14,26.17,26.17,0,0,1,7,1A11.15,11.15,0,0,1,91.42,87.39Z"/></g></svg>