<svg xmlns="http://www.w3.org/2000/svg" viewBox="0 0 128 128"><defs><style>.cls-1{fill:#7aa8d7;}.cls-2{fill:#5b8dc9;}.cls-3{fill:#86b8e0;}.cls-4{fill:#d4d8e1;}.cls-5{fill:#c7cdd8;}.cls-6{fill:#dfe3ea;}.cls-7{fill:#9dd5df;}.cls-8{fill:#77cacb;}.cls-9{fill:#fff;}.cls-10{fill:#949aaf;}</style></defs><title>Droper</title><g id="Droper"><path class="cls-1" d="M23.38,49.77H55.89c0,5.8-.49,7.78,1.7,9.35l9.12,6.51a8.13,8.13,0,0,1,3.41,6.62v50.69A4.07,4.07,0,0,1,66.05,127H13.21a4.06,4.06,0,0,1-4.06-4.06V72.25a8.15,8.15,0,0,1,3.4-6.62C24.94,56.79,23.38,59.7,23.38,49.77Z"/><path class="cls-2" d="M70.12,116.84v6.1A4.08,4.08,0,0,1,66.05,127H13.21a4.08,4.08,0,0,1-4.06-4.06v-6.1a4.08,4.08,0,0,0,4.06,4.06H66.05A4.08,4.08,0,0,0,70.12,116.84Z"/><rect class="cls-3" x="23.38" y="49.77" width="32.52" height="6.1"/><rect class="cls-4" x="19.31" y="33.52" width="40.65" height="16.26" transform="translate(79.27 83.29) rotate(-180)"/><rect class="cls-5" x="19.31" y="33.52" width="40.65" height="4.06" transform="translate(79.27 71.1) rotate(-180)"/><path class="cls-4" d="M23.38,33.52c34.17,0,32.51-.21,32.51,0a8.13,8.13,0,0,0-8.13-8.13H31.5A8.12,8.12,0,0,0,23.38,33.52Z"/><path class="cls-1" d="M31.5,25.39H47.76V9.13a8.13,8.13,0,1,0-16.26,0Z"/><path class="cls-1" d="M92.47,37.58h20.32V11.16a10.16,10.16,0,0,0-20.32,0Z"/><path class="cls-1" d="M114.83,37.58H90.44c-5.41,0-5.33,8.13,0,8.13h24.39C120.23,45.71,120.15,37.58,114.83,37.58Z"/><path class="cls-4" d="M110.76,45.71v63l-4.06,10.16V127l-8.13-4.06c0-5.42.81-2-4.07-14.23v-63Z"/><rect class="cls-4" x="9.15" y="74.16" width="60.97" height="40.65" transform="translate(79.27 188.97) rotate(-180)"/><rect class="cls-6" x="9.15" y="74.16" width="60.97" height="4.06" transform="translate(79.27 152.39) rotate(-180)"/><path class="cls-7" d="M31.5,98.55a8.13,8.13,0,1,0,16.26,0c0-6.1-8.13-14.23-8.13-14.23S31.5,92.45,31.5,98.55Z"/><path class="cls-8" d="M39.63,106.68a8.11,8.11,0,0,1-7.86-10.16c2.06,8.09,13.67,8.1,15.73,0A8.12,8.12,0,0,1,39.63,106.68Z"/><rect class="cls-2" x="31.5" y="21.32" width="16.26" height="4.06"/><rect class="cls-2" x="92.47" y="33.52" width="20.32" height="4.06"/><rect class="cls-5" x="94.5" y="45.71" width="16.26" height="6.1"/><path class="cls-9" d="M110.76,58.94v2h-4.08a1,1,0,0,1,0-2Z"/><path class="cls-9" d="M110.76,69.1v2h-8.15a1,1,0,0,1,0-2Z"/><path class="cls-9" d="M110.76,79.26v2h-4.08a1,1,0,0,1,0-2Z"/><path class="cls-9" d="M110.76,89.42v2h-8.15a1,1,0,0,1,0-2Z"/><path class="cls-9" d="M110.76,99.58v2h-4.08a1,1,0,0,1,0-2Z"/><path class="cls-10" d="M42.68,43.68V39.61a1,1,0,0,1,2,0v4.07A1,1,0,0,1,42.68,43.68Z"/><path class="cls-10" d="M50.81,43.68V39.61a1,1,0,0,1,2,0v4.07A1,1,0,0,1,50.81,43.68Z"/><path class="cls-10" d="M34.55,43.68V39.61a1,1,0,0,1,2,0v4.07A1,1,0,0,1,34.55,43.68Z"/><path class="cls-10" d="M26.42,43.68V39.61a1,1,0,0,1,2,0v4.07A1,1,0,0,1,26.42,43.68Z"/></g></svg>