<svg xmlns="http://www.w3.org/2000/svg" viewBox="0 0 128 128"><defs><style>.cls-1{fill:#7aa8d7;}.cls-2{fill:#5b8dc9;}.cls-3{fill:#c7cdd8;}.cls-4{fill:#d4d8e1;}.cls-5{fill:#e2607f;}.cls-6{fill:#dd4e6a;}</style></defs><title>Healthy Insurance</title><g id="Healthy_Insurance" data-name="Healthy Insurance"><path class="cls-1" d="M64,127A74.85,74.85,0,0,1,11.16,55.46V9.13C29.74,9.13,45.93,7,64,1c18.06,6,34.25,8.13,52.84,8.13V55.46A74.85,74.85,0,0,1,64,127Z"/><path class="cls-2" d="M116.84,51.4v4.06A74.86,74.86,0,0,1,64,127,74.86,74.86,0,0,1,11.16,55.46V51.4A74.87,74.87,0,0,0,64,122.94,74.87,74.87,0,0,0,116.84,51.4Z"/><path class="cls-3" d="M106.68,19.13v4.06A167.58,167.58,0,0,1,64,15.73a167.58,167.58,0,0,1-42.68,7.46V19.13A167.58,167.58,0,0,0,64,11.67,167.58,167.58,0,0,0,106.68,19.13Z"/><path class="cls-4" d="M106.68,23.19V55.46A64.35,64.35,0,0,1,64,116.29,64.35,64.35,0,0,1,21.32,55.46V23.19A167.58,167.58,0,0,0,64,15.73,167.58,167.58,0,0,0,106.68,23.19Z"/><path class="cls-3" d="M106.68,51.4v4.06A64.35,64.35,0,0,1,64,116.29,64.35,64.35,0,0,1,21.32,55.46V51.4A64.35,64.35,0,0,0,64,112.23,64.35,64.35,0,0,0,106.68,51.4Z"/><circle class="cls-5" cx="64" cy="57.9" r="24.39"/><path class="cls-6" d="M64,82.29A24.4,24.4,0,0,1,39.69,55.87a24.4,24.4,0,0,0,48.62,0A24.39,24.39,0,0,1,64,82.29Z"/><polygon class="cls-4" points="78.23 53.84 68.06 53.84 68.06 43.68 59.94 43.68 59.94 53.84 49.77 53.84 49.77 61.97 59.94 61.97 59.94 72.13 68.06 72.13 68.06 61.97 78.23 61.97 78.23 53.84"/><rect class="cls-3" x="59.94" y="66.03" width="8.13" height="6.1"/></g></svg>