<svg xmlns="http://www.w3.org/2000/svg" viewBox="0 0 128 128"><defs><style>.cls-1{fill:#6ab891;}.cls-2{fill:#4da67f;}.cls-3{fill:#d4d8e1;}.cls-4{fill:#c7cdd8;}.cls-5{fill:#e2607f;}.cls-6{fill:#dd4e6a;}.cls-7{fill:#949aaf;}.cls-8{fill:#8288a1;}</style></defs><title>Herbal</title><g id="Herbal"><path class="cls-1" d="M7.1,25.39H17.34A26.34,26.34,0,0,1,43.68,51.73v2.11a0,0,0,0,1,0,0H33.44A26.34,26.34,0,0,1,7.1,27.5V25.39A0,0,0,0,1,7.1,25.39Z"/><path class="cls-1" d="M65.72,29.45h6.41a0,0,0,0,1,0,0V31.8a22,22,0,0,1-22,22H43.68a0,0,0,0,1,0,0V51.49a22,22,0,0,1,22-22Z" transform="translate(115.81 83.29) rotate(180)"/><path class="cls-2" d="M43.68,53.84H33.44A26.34,26.34,0,0,1,7.1,27.5c0-2.41,0-2.11.07-2.11A26.32,26.32,0,0,0,33.44,49.84H43.61C43.69,50.86,43.68,51.42,43.68,53.84Z"/><path class="cls-2" d="M72.13,31.8a22,22,0,0,1-22,22H43.68c0-2.24,0-3,.07-4h6.34a22,22,0,0,0,22-20.39C72.16,29.45,72.13,29.18,72.13,31.8Z"/><path class="cls-2" d="M43.68,54.84c-.49,0,1.1,1.07-25-18.49a1,1,0,0,1,1.2-1.6L44.28,53A1,1,0,0,1,43.68,54.84Z"/><path class="cls-2" d="M43.68,54.84A1,1,0,0,1,43,53.09L61.3,36.83a1,1,0,0,1,1.33,1.5C42.83,55.93,44.24,54.84,43.68,54.84Z"/><path class="cls-3" d="M84.35,118.85H43.72A42.65,42.65,0,0,1,1.07,76.2c0-20.19-.17-22.35,0-22.35,125.56,0,125.9-.17,125.9,0V76.2A42.66,42.66,0,0,1,84.35,118.85Z"/><path class="cls-4" d="M123.16,93.89a42.63,42.63,0,0,1-38.81,25H43.72a42.63,42.63,0,0,1-38.81-25A43.89,43.89,0,0,0,41,112.76h46A43.89,43.89,0,0,0,123.16,93.89Z"/><rect class="cls-4" x="43.72" y="118.85" width="40.62" height="8.12"/><circle class="cls-5" cx="64.03" cy="86.35" r="24.37"/><path class="cls-6" d="M64,110.73c-14.92,0-26.19-13.36-24.18-27.44a24.37,24.37,0,0,0,48.37,0C90.23,97.4,79,110.73,64,110.73Z"/><polygon class="cls-3" points="78.25 82.29 68.1 82.29 68.1 72.13 59.97 72.13 59.97 82.29 49.81 82.29 49.81 90.41 59.97 90.41 59.97 100.57 68.1 100.57 68.1 90.41 78.25 90.41 78.25 82.29"/><rect class="cls-4" x="59.97" y="94.48" width="8.12" height="6.09"/><path class="cls-7" d="M106.63,27c-5,25-3.76,18.9-5.32,26.85H74.76c2.77-8.14.62-1.84,11-32.44A14.22,14.22,0,0,1,102.28,1.53C114.08,4.68,116.55,20.21,106.63,27Z"/><polygon class="cls-8" points="102.5 47.76 101.31 53.85 74.76 53.85 76.83 47.76 102.5 47.76"/></g></svg>