<svg xmlns="http://www.w3.org/2000/svg" viewBox="0 0 128 128"><defs><style>.cls-1{fill:#949aaf;}.cls-2{fill:#d4d8e1;}.cls-3{fill:#c7cdd8;}.cls-4{fill:#9dd5df;}.cls-5{fill:#77cacb;}.cls-6{fill:#8288a1;}.cls-7{fill:#9b756d;}.cls-8{fill:#e2607f;}.cls-9{fill:#dd4e6a;}.cls-10{fill:#fff;}</style></defs><title>Hospital</title><g id="Hospital"><rect class="cls-1" x="21.34" y="17.26" width="26.41" height="8.13"/><rect class="cls-1" x="80.25" y="17.26" width="26.41" height="8.13"/><polyline class="cls-2" points="80.25 25.39 102.6 25.39 102.6 118.84 25.4 118.84 25.4 25.39 47.75 25.39"/><polyline class="cls-3" points="80.25 112.75 102.6 112.75 102.6 118.84 25.4 118.84 25.4 112.75 47.75 112.75"/><rect class="cls-4" x="47.75" y="92.43" width="32.51" height="26.41"/><path class="cls-5" d="M63,118.87V92.45a1,1,0,0,1,2,0v26.42A1,1,0,0,1,63,118.87Z"/><rect class="cls-4" x="57.91" y="39.61" width="12.19" height="12.19"/><rect class="cls-4" x="80.25" y="39.61" width="12.19" height="12.19"/><rect class="cls-4" x="35.56" y="39.61" width="12.19" height="12.19"/><rect class="cls-4" x="57.91" y="61.96" width="12.19" height="12.19"/><rect class="cls-4" x="80.25" y="61.96" width="12.19" height="12.19"/><rect class="cls-4" x="35.56" y="61.96" width="12.19" height="12.19"/><path class="cls-1" d="M102.6,41.64H127V127H102.6Z"/><path class="cls-1" d="M25.4,41.64H1V127H25.4Z"/><path class="cls-6" d="M102.6,126.39v-5.52H127V127C99.71,127,102.6,127.24,102.6,126.39Z"/><path class="cls-6" d="M25.4,126.39v-5.52H1V127C28.29,127,25.4,127.24,25.4,126.39Z"/><rect class="cls-4" x="108.69" y="51.8" width="12.19" height="8.13"/><rect class="cls-4" x="108.69" y="70.08" width="12.19" height="8.13"/><rect class="cls-4" x="108.69" y="88.37" width="12.19" height="8.13"/><rect class="cls-4" x="7.12" y="51.8" width="12.19" height="8.13"/><rect class="cls-4" x="7.12" y="70.08" width="12.19" height="8.13"/><rect class="cls-4" x="7.12" y="88.37" width="12.19" height="8.13"/><rect class="cls-7" x="17.27" y="118.84" width="93.45" height="8.13"/><rect class="cls-1" x="43.68" y="84.31" width="40.63" height="8.13"/><rect class="cls-8" x="47.75" y="1.01" width="32.51" height="28.44"/><rect class="cls-9" x="47.75" y="23.36" width="32.51" height="6.09"/><rect class="cls-3" x="25.4" y="25.39" width="22.35" height="4.06"/><rect class="cls-3" x="80.25" y="25.39" width="22.35" height="4.06"/><path class="cls-10" d="M63,21.32V9.13a1,1,0,0,1,2,0V21.32A1,1,0,0,1,63,21.32Z"/><path class="cls-10" d="M70.1,16.23H57.9a1,1,0,0,1,0-2H70.1A1,1,0,0,1,70.1,16.23Z"/></g></svg>