<svg xmlns="http://www.w3.org/2000/svg" viewBox="0 0 128 128"><defs><style>.cls-1{fill:#9b756d;}.cls-2{fill:#c7cdd8;}.cls-3{fill:#d4d8e1;}.cls-4{fill:#d1a788;}.cls-5{fill:#cba07a;}.cls-6{fill:#e2607f;}.cls-7{fill:#dd4e6a;}.cls-8{fill:#fbcc88;}.cls-9{fill:#7aa8d7;}.cls-10{fill:#f6b756;}.cls-11{fill:#5b8dc9;}.cls-12{fill:#9dd5df;}.cls-13{fill:#949aaf;}</style></defs><title>Medical History</title><g id="Medical_History" data-name="Medical History"><path class="cls-1" d="M110.74,41.65v77.22a8.13,8.13,0,1,0,16.26,0V41.65Z"/><path class="cls-2" d="M104.65,118.87h14.22V9.13H104.65Z"/><rect class="cls-3" x="7.1" y="1" width="97.55" height="56.9"/><polygon class="cls-2" points="104.64 53.84 104.64 57.9 7.1 57.9 7.1 47.74 37.23 47.74 43.33 53.84 104.64 53.84"/><path class="cls-4" d="M110.74,118.87v-61H41.65l-6.1-6.09H1v67.06A8.13,8.13,0,0,0,9.13,127H118.87A8.13,8.13,0,0,1,110.74,118.87Z"/><path class="cls-4" d="M110.74,118.87v-61H41.65l-6.1-6.09H1v67.06A8.13,8.13,0,0,0,9.13,127H118.87A8.13,8.13,0,0,1,110.74,118.87Z"/><path class="cls-5" d="M118.87,127H9.13A8.13,8.13,0,0,1,1,118.87v-6.1a8.12,8.12,0,0,0,8.13,8.13H111A8.1,8.1,0,0,0,118.87,127Z"/><circle class="cls-6" cx="55.87" cy="92.45" r="24.39"/><path class="cls-7" d="M55.87,116.84c-14.94,0-26.19-13.36-24.18-27.44a24.37,24.37,0,0,0,48.36,0C82.07,103.52,70.79,116.84,55.87,116.84Z"/><polygon class="cls-3" points="70.1 88.39 59.94 88.39 59.94 78.23 51.81 78.23 51.81 88.39 41.65 88.39 41.65 96.52 51.81 96.52 51.81 106.68 59.94 106.68 59.94 96.52 70.1 96.52 70.1 88.39"/><circle class="cls-8" cx="33.52" cy="27.42" r="16.26"/><path class="cls-9" d="M33.52,30.38a5.92,5.92,0,0,1-5.92-5.92V23a5.92,5.92,0,1,1,11.83,0v1.47A5.92,5.92,0,0,1,33.52,30.38Z"/><path class="cls-9" d="M44.06,39.8A16.28,16.28,0,0,1,23,39.8a27.11,27.11,0,0,1,1.12-3.19,10.25,10.25,0,0,1,18.86,0A29,29,0,0,1,44.06,39.8Z"/><path class="cls-10" d="M24.09,36.61A29.86,29.86,0,0,0,23,39.8a16.25,16.25,0,0,1-5.59-14.41A16.29,16.29,0,0,0,24.09,36.61Z"/><path class="cls-10" d="M44.06,39.8l-.81-2.42c-.33-1.09-.61-.46.81-1.65a16.25,16.25,0,0,0,5.59-10.34A16.23,16.23,0,0,1,44.06,39.8Z"/><path class="cls-11" d="M44.06,39.8A16.28,16.28,0,0,1,23,39.8a27.11,27.11,0,0,1,1.12-3.19,16.3,16.3,0,0,0,18.86,0A29,29,0,0,1,44.06,39.8Z"/><rect class="cls-12" x="57.9" y="13.19" width="36.58" height="8.13"/><rect class="cls-2" x="51.81" y="100.58" width="8.13" height="6.1"/><path class="cls-13" d="M66,32.48H59.94a1,1,0,0,1,0-2H66A1,1,0,0,1,66,32.48Z"/><path class="cls-13" d="M92.45,32.48H74.16a1,1,0,0,1,0-2H92.45A1,1,0,0,1,92.45,32.48Z"/><path class="cls-13" d="M66,40.61H59.94a1,1,0,0,1,0-2H66A1,1,0,0,1,66,40.61Z"/><path class="cls-13" d="M92.45,40.61H74.16a1,1,0,0,1,0-2H92.45A1,1,0,0,1,92.45,40.61Z"/><path class="cls-13" d="M66,48.74H59.94a1,1,0,0,1,0-2H66A1,1,0,0,1,66,48.74Z"/><path class="cls-13" d="M92.45,48.74H74.16a1,1,0,0,1,0-2H92.45A1,1,0,0,1,92.45,48.74Z"/></g></svg>