<svg xmlns="http://www.w3.org/2000/svg" viewBox="0 0 128 128"><defs><style>.cls-1{fill:#9b756d;}.cls-2{fill:#8a6762;}.cls-3{fill:#d4d8e1;}.cls-4{fill:#c7cdd8;}.cls-5{fill:#949aaf;}.cls-6{fill:#8288a1;}.cls-7{fill:#47566a;}.cls-8{fill:#e2607f;}.cls-9{fill:#dd4e6a;}.cls-10{fill:#fff;}.cls-11{fill:#8cdd79;}</style></defs><title>Medical Checkup</title><g id="Medical_Checkup" data-name="Medical Checkup"><path class="cls-1" d="M84.32,5.06h18.29a8.13,8.13,0,0,1,8.13,8.13V118.87a8.13,8.13,0,0,1-8.13,8.13H25.39a8.13,8.13,0,0,1-8.13-8.13V13.19a8.13,8.13,0,0,1,8.13-8.13H43.68"/><path class="cls-2" d="M110.74,112.77v6.1a8.13,8.13,0,0,1-8.13,8.13H25.39a8.13,8.13,0,0,1-8.13-8.13v-6.1a8.12,8.12,0,0,0,8.13,8.13h77.22A8.12,8.12,0,0,0,110.74,112.77Z"/><path class="cls-3" d="M100.58,13.19V116.84H27.42V13.19Z"/><path class="cls-4" d="M100.58,110.74v6.1H27.42v-6.1Z"/><path class="cls-5" d="M76.19,24.35H71a4.84,4.84,0,0,1-4.33-2.44,3.06,3.06,0,0,0-5.4,0A4.84,4.84,0,0,1,57,24.35H51.81a5.07,5.07,0,0,1-5.07-5.06v-8.1a1,1,0,0,1,2,0v8.1a3.07,3.07,0,0,0,3.07,3.06H57A2.89,2.89,0,0,0,59.54,21a5.06,5.06,0,0,1,8.92,0A2.89,2.89,0,0,0,71,22.35h5.16a3.07,3.07,0,0,0,3.07-3.06v-8.1a1,1,0,0,1,2,0v8.1A5.07,5.07,0,0,1,76.19,24.35Z"/><path class="cls-5" d="M78.23,13.19H49.77A6.1,6.1,0,0,1,49.77,1H78.23a6.1,6.1,0,0,1,0,12.19Z"/><path class="cls-6" d="M78.23,13.19H49.77a6.09,6.09,0,0,1-5.9-7.59,6.09,6.09,0,0,0,5.9,4.59H78.23a6.09,6.09,0,0,0,5.9-4.59A6.09,6.09,0,0,1,78.23,13.19Z"/><path class="cls-7" d="M53.31,7.1a1.5,1.5,0,0,1-3,0A1.5,1.5,0,0,1,53.31,7.1Z"/><path class="cls-7" d="M77.69,7.1a1.5,1.5,0,0,1-3,0A1.5,1.5,0,0,1,77.69,7.1Z"/><circle class="cls-8" cx="64" cy="49.77" r="16.26"/><path class="cls-9" d="M64,66A16.26,16.26,0,0,1,47.93,47.27a16.26,16.26,0,0,0,32.14,0A16.26,16.26,0,0,1,64,66Z"/><path class="cls-10" d="M63,57.9V41.65a1,1,0,0,1,2,0V57.9A1,1,0,0,1,63,57.9Z"/><path class="cls-10" d="M72.13,50.77H55.87a1,1,0,0,1,0-2H72.13A1,1,0,0,1,72.13,50.77Z"/><path class="cls-5" d="M88.39,79.23H53.84a1,1,0,0,1,0-2H88.39A1,1,0,0,1,88.39,79.23Z"/><path class="cls-5" d="M88.39,91.42H53.84a1,1,0,0,1,0-2H88.39A1,1,0,0,1,88.39,91.42Z"/><path class="cls-5" d="M88.39,103.61H53.84a1,1,0,0,1,0-2H88.39A1,1,0,0,1,88.39,103.61Z"/><path class="cls-11" d="M41.65,81.26c-.55,0-.56-.14-2.74-2.33a1,1,0,0,1,1.41-1.41l1.33,1.32L45,75.49a1,1,0,0,1,1.42,1.41C41.94,81.38,42.2,81.26,41.65,81.26Z"/><path class="cls-11" d="M41.65,93.45c-.55,0-.56-.14-2.74-2.32a1,1,0,0,1,1.41-1.42L41.65,91,45,87.68a1,1,0,0,1,1.42,1.41C41.94,93.57,42.2,93.45,41.65,93.45Z"/><path class="cls-11" d="M41.65,105.65c-.55,0-.56-.14-2.74-2.33a1,1,0,1,1,1.41-1.41l1.33,1.32L45,99.87a1,1,0,0,1,1.42,1.42C41.94,105.77,42.2,105.65,41.65,105.65Z"/></g></svg>