<svg xmlns="http://www.w3.org/2000/svg" viewBox="0 0 128 128"><defs><style>.cls-1{fill:#9b756d;}.cls-2{fill:#8a6762;}.cls-3{fill:#d4d8e1;}.cls-4{fill:#c7cdd8;}.cls-5{fill:#949aaf;}.cls-6{fill:#e2607f;}.cls-7{fill:#dd4e6a;}.cls-8{fill:#8288a1;}.cls-9{fill:#47566a;}.cls-10{fill:#fbcc88;}</style></defs><title>Medical Report</title><g id="Medical_Report" data-name="Medical Report"><path class="cls-1" d="M84.32,5.06h18.29a8.13,8.13,0,0,1,8.13,8.13V118.87a8.13,8.13,0,0,1-8.13,8.13H25.39a8.13,8.13,0,0,1-8.13-8.13V13.19a8.13,8.13,0,0,1,8.13-8.13H43.68"/><path class="cls-2" d="M110.74,112.77v6.1a8.13,8.13,0,0,1-8.13,8.13H25.39a8.13,8.13,0,0,1-8.13-8.13v-6.1a8.12,8.12,0,0,0,8.13,8.13h77.22A8.12,8.12,0,0,0,110.74,112.77Z"/><path class="cls-3" d="M100.58,13.19V116.84H27.42V13.19Z"/><path class="cls-4" d="M100.58,110.74v6.1H27.42v-6.1Z"/><path class="cls-5" d="M76.19,24.35H71a4.84,4.84,0,0,1-4.33-2.44,3.06,3.06,0,0,0-5.4,0A4.84,4.84,0,0,1,57,24.35H51.81a5.07,5.07,0,0,1-5.07-5.06v-8.1a1,1,0,0,1,2,0v8.1a3.07,3.07,0,0,0,3.07,3.06H57A2.89,2.89,0,0,0,59.54,21a5.06,5.06,0,0,1,8.92,0A2.89,2.89,0,0,0,71,22.35h5.16a3.07,3.07,0,0,0,3.07-3.06v-8.1a1,1,0,0,1,2,0v8.1A5.07,5.07,0,0,1,76.19,24.35Z"/><path class="cls-6" d="M64,40.49c-6.53-9.46-20.32-4.4-20.32,7.25C43.68,59.94,64,72.13,64,72.13S84.32,59.94,84.32,47.74C84.32,36.1,70.53,31,64,40.49Z"/><path class="cls-7" d="M84.32,47.74C84.32,59.94,64,72.13,64,72.13S43.68,59.94,43.68,47.74c0-2.75-.15.49,1.5,4,7.36,15.56,30.28,15.56,37.64,0C84.47,48.23,84.32,45,84.32,47.74Z"/><path class="cls-5" d="M78.23,13.19H49.77A6.1,6.1,0,0,1,49.77,1H78.23a6.1,6.1,0,0,1,0,12.19Z"/><path class="cls-8" d="M78.23,13.19H49.77a6.09,6.09,0,0,1-5.9-7.59,6.09,6.09,0,0,0,5.9,4.59H78.23a6.09,6.09,0,0,0,5.9-4.59A6.09,6.09,0,0,1,78.23,13.19Z"/><path class="cls-9" d="M53.31,7.1a1.5,1.5,0,0,1-3,0A1.5,1.5,0,0,1,53.31,7.1Z"/><path class="cls-9" d="M77.69,7.1a1.5,1.5,0,0,1-3,0A1.5,1.5,0,0,1,77.69,7.1Z"/><path class="cls-5" d="M88.39,85.32H39.61a1,1,0,0,1,0-2H88.39A1,1,0,0,1,88.39,85.32Z"/><path class="cls-5" d="M88.39,95.48H39.61a1,1,0,0,1,0-2H88.39A1,1,0,0,1,88.39,95.48Z"/><path class="cls-5" d="M78.23,105.65H39.61a1,1,0,0,1,0-2H78.23A1,1,0,0,1,78.23,105.65Z"/><path class="cls-10" d="M62,63c-.84,0-.55.14-4.68-8.13H39.61a1,1,0,0,1,0-2H57.9c.84,0,.68.12,3.75,6.26l3.41-13.63a1,1,0,0,1,.86-.75c1-.11.72,0,4.79,8.12H88.39a1,1,0,0,1,0,2H70.1c-.84,0-.68-.13-3.75-6.27L62.94,62.21A1,1,0,0,1,62,63Z"/></g></svg>