<svg xmlns="http://www.w3.org/2000/svg" viewBox="0 0 128 128"><defs><style>.cls-1{fill:#fbcc88;}.cls-2{fill:#f6b756;}.cls-3{fill:#d4d8e1;}.cls-4{fill:#e2607f;}.cls-5{fill:none;}.cls-6{fill:#c7cdd8;}.cls-7{fill:#949aaf;}.cls-8{fill:#8288a1;}.cls-9{fill:#dd4e6a;}</style></defs><title>Mortar</title><g id="Mortar"><path class="cls-1" d="M33.57,19.32a10.18,10.18,0,0,1-12.69,9.84s0,0,0,0a10,10,0,0,1-3.94-2c-7.17-5.87-3.12-18,6.49-18A10.15,10.15,0,0,1,33.57,19.32Z"/><path class="cls-2" d="M31.25,25.78a10.16,10.16,0,0,1-17.68-3.92,10,10,0,0,1-.11-4.55c2.31,10.71,17.68,10.76,19.9,0A9.73,9.73,0,0,1,31.25,25.78Z"/><path class="cls-3" d="M46.84,45.73a7.19,7.19,0,0,1-5.08-12.26C51.9,23.33,52.89,21.35,56.85,21.35a7.19,7.19,0,0,1,5.08,12.26C51.8,43.75,50.8,45.73,46.84,45.73Z"/><path class="cls-4" d="M64,28.54c0,3.73-2.06,5-7.11,10.08L46.77,28.46l5-5A7.18,7.18,0,0,1,64,28.54Z"/><line class="cls-5" x1="56.92" y1="38.62" x2="46.77" y2="28.46"/><path class="cls-3" d="M84.35,118.85H43.72A42.65,42.65,0,0,1,1.07,76.2c0-20.19-.17-22.35,0-22.35,125.56,0,125.9-.17,125.9,0V76.2A42.66,42.66,0,0,1,84.35,118.85Z"/><path class="cls-6" d="M123.16,93.89a42.63,42.63,0,0,1-38.81,25H43.72a42.63,42.63,0,0,1-38.81-25A43.89,43.89,0,0,0,41,112.76h46A43.89,43.89,0,0,0,123.16,93.89Z"/><rect class="cls-6" x="43.72" y="118.85" width="40.62" height="8.12"/><circle class="cls-4" cx="64.03" cy="86.35" r="24.37"/><polygon class="cls-3" points="78.25 82.29 68.1 82.29 68.1 72.13 59.97 72.13 59.97 82.29 49.81 82.29 49.81 90.41 59.97 90.41 59.97 100.57 68.1 100.57 68.1 90.41 78.25 90.41 78.25 82.29"/><rect class="cls-6" x="59.97" y="94.48" width="8.12" height="6.09"/><path class="cls-7" d="M106.63,27c-5,25-3.76,18.9-5.32,26.85H74.76c2.77-8.14.62-1.84,11-32.44A14.22,14.22,0,0,1,102.28,1.53C114.08,4.68,116.55,20.21,106.63,27Z"/><polygon class="cls-8" points="102.5 47.76 101.31 53.85 74.76 53.85 76.83 47.76 102.5 47.76"/><path class="cls-6" d="M56.92,38.62c-4.89,4.9-6.34,7.11-10.07,7.11a7.17,7.17,0,0,1-7.11-6.18,7.16,7.16,0,0,0,5.08,2.12c3.78,0,5.42-2.46,9.06-6.1Z"/><path class="cls-9" d="M64,28.54c0,3.73-2.06,5-7.11,10.08l-3-3,6-6a7.12,7.12,0,0,0,2-6.09A7.13,7.13,0,0,1,64,28.54Z"/><path class="cls-2" d="M28.13,15.93c-9,9-11.11,11.2-11.21,11.2a11.6,11.6,0,0,1-1.4-1.41c3-3,.72-.71,11.19-11.2A1,1,0,0,1,28.13,15.93Z"/><path class="cls-9" d="M64,110.73c-14.92,0-26.19-13.36-24.18-27.44a24.37,24.37,0,0,0,48.37,0C90.23,97.4,79,110.73,64,110.73Z"/></g></svg>