<svg xmlns="http://www.w3.org/2000/svg" viewBox="0 0 128 128"><defs><style>.cls-1{fill:#d4d8e1;}.cls-2{fill:#c7cdd8;}.cls-3{fill:#949aaf;}.cls-4{fill:#454b60;}.cls-5{fill:#42455e;}.cls-6{fill:#7aa8d7;}.cls-7{fill:#86b8e0;}.cls-8{fill:#8288a1;}</style></defs><title>MRI</title><g id="MRI"><path class="cls-1" d="M100.62,86,27.4,86c-23-26-12-66.72,20.32-78.1V5.06A4.08,4.08,0,0,1,51.78,1H76.17a4.08,4.08,0,0,1,4.07,4.06V7.85C112.88,19.39,123.29,60.21,100.62,86Z"/><path class="cls-2" d="M112.74,54.84H94.48a1,1,0,0,1,0-2h18.25C112.75,53.5,112.75,54.17,112.74,54.84Z"/><path class="cls-2" d="M33.52,54.84H15.21c0-.66,0-1.33,0-2h18.3A1,1,0,0,1,33.52,54.84Z"/><path class="cls-2" d="M100.62,86,27.4,86A48.33,48.33,0,0,1,15.24,51.81c0,15.51,13.86,30.08,31.63,30.1l34,0C97.51,82,112,69.1,112.69,51.81,112.69,50.66,114.82,69.84,100.62,86Z"/><path class="cls-3" d="M88.67,71.68C103,52.05,89.18,23.35,64,23.35s-39,28.71-24.69,48.33"/><path class="cls-4" d="M83.24,65.18c8.69-14.69-1.82-33.7-19.26-33.7a22.38,22.38,0,0,0-19.27,33.7"/><path class="cls-5" d="M86.13,56.93a22.35,22.35,0,0,0-44.3,0,22.36,22.36,0,1,1,44.3,0Z"/><rect class="cls-6" x="25.36" y="88.39" width="77.23" height="14.23"/><rect class="cls-7" x="25.36" y="88.39" width="77.23" height="4.06"/><path class="cls-6" d="M102.59,88.39H25.36c19.7-23.65,15.8-19,20.33-24.39H82.27C86.67,69.27,82.76,64.59,102.59,88.39Z"/><path class="cls-3" d="M98.53,102.61a19,19,0,0,1-.19,4.07,9.91,9.91,0,0,1-9.77,8.13H39.39a10,10,0,0,1-10-10v-2.24Z"/><rect class="cls-3" x="39.59" y="114.81" width="48.77" height="12.19"/><rect class="cls-8" x="39.59" y="114.81" width="48.77" height="4.06"/><path class="cls-8" d="M98.53,102.61a19,19,0,0,1-.19,4.07H29.61a19.78,19.78,0,0,1-.18-4.07Z"/><path class="cls-2" d="M72.13,14.19H55.87a1,1,0,0,1,0-2H72.13A1,1,0,0,1,72.13,14.19Z"/></g></svg>