<svg xmlns="http://www.w3.org/2000/svg" viewBox="0 0 128 128"><defs><style>.cls-1{fill:#fbcc88;}.cls-2{fill:#6ab891;}.cls-3{fill:#f6b756;}.cls-4{fill:#ffd39f;}.cls-5{fill:#4da67f;}</style></defs><title>Pharmacy</title><g id="Pharmacy"><path class="cls-1" d="M122.91,45.74C115.47,68,92.47,77.68,69.46,78.19c-1.95,0-1.4-4.32-1.4,42.7L92.44,127H35.56l24.38-6.09V78.21C36.29,78,12.66,68.43,5.09,45.74Z"/><path class="cls-2" d="M68.06,115.3c3.54.59,7.58,1.1,12.19,1.53,0,0-5.36.4-12.19.4Z"/><path class="cls-2" d="M67.92,82c.16-1.15.14-1.52.14.06Z"/><path class="cls-3" d="M68.06,93.77v12.62c-1.49.4-7.67,1.92-8.12,2,0-13.88-.24-12.5.55-12.68C62.86,95.15,65.5,94.5,68.06,93.77Z"/><path class="cls-2" d="M92.44,21.36c0,12.4-13,19.33-24.28,24.38H48.22C59.92,39.66,84.31,33,84.31,21.36c0-8.28-5.91-12.48-14.09-12.19C65,9.34,59,11.67,58.07,17.6a7.12,7.12,0,0,1,1.87,4.78c0,3.92-3.19,11.17-7.11,11.17-4.95,0-11.57-14.1-2.7-17.73C54.17-4.88,92.44-4.72,92.44,21.36Z"/><path class="cls-4" d="M122.91,45.74a42.79,42.79,0,0,1-1.59,4.06H6.68a42.79,42.79,0,0,1-1.59-4.06Z"/><path class="cls-5" d="M76.49,41.67c-2.68,1.49-5.5,2.81-8.33,4.07H48.22C50.88,44.35,53.86,43,57,41.67Z"/><path class="cls-2" d="M88.37,86.36c0,17.2-36.31,16.57-40.56,22.36,1.39,2.09,9.7,4.35,12.13,4.94V117c-6.52-.39-20.31-1.77-20.31-8.29,0-10.77,19.17-11.44,32.49-16.23,12.65-4.42,9.6-9.25-2.66-14.28l13.92-1.5C86.38,79.21,88.37,82.37,88.37,86.36Z"/><path class="cls-5" d="M55.88,112.56c1.19.37,2.55.73,4.06,1.1V117c-1.36-.08-2.72-.2-4.06-.34Z"/><path class="cls-5" d="M76.65,81.79a44.51,44.51,0,0,0-7.19-3.6l13.92-1.5a15.6,15.6,0,0,1,3.13,3.47A74,74,0,0,1,76.65,81.79Z"/></g></svg>