<svg xmlns="http://www.w3.org/2000/svg" viewBox="0 0 128 128"><defs><style>.cls-1{fill:#949aaf;}.cls-2{fill:#8288a1;}.cls-3{fill:#7aa8d7;}.cls-4{fill:#d4d8e1;}.cls-5{fill:#5b8dc9;}</style></defs><title>Phonendoscope</title><g id="Phonendoscope"><circle class="cls-1" cx="107.71" cy="41.65" r="12.19"/><path class="cls-2" d="M107.71,53.84a12.2,12.2,0,0,1-12.1-13.69,12.19,12.19,0,0,0,24.2,0A12.2,12.2,0,0,1,107.71,53.84Z"/><path class="cls-1" d="M57.94,45.71V13.19A9.17,9.17,0,0,0,48.77,4a1,1,0,0,1,0-2A11.18,11.18,0,0,1,59.94,13.19V45.71A1,1,0,0,1,57.94,45.71Z"/><path class="cls-1" d="M9.16,45.71V13.48A11.17,11.17,0,0,1,20.32,2.32a1,1,0,0,1,0,2,9.17,9.17,0,0,0-9.16,9.16V45.71A1,1,0,0,1,9.16,45.71Z"/><path class="cls-1" d="M71.13,128A37.62,37.62,0,0,1,33.55,90.42V86.35a1,1,0,0,1,2,0v4.07a35.58,35.58,0,1,0,71.16,0V45.71a1,1,0,0,1,2,0V90.42A37.62,37.62,0,0,1,71.13,128Z"/><path class="cls-3" d="M63,45.71A28.47,28.47,0,0,1,38.61,73.88V86.35H30.48V73.88A28.49,28.49,0,0,1,6.1,45.71h8.13a20.32,20.32,0,1,0,40.64,0Z"/><path class="cls-4" d="M24.39,5.06h-2a2,2,0,0,1,0-4.06h2A2,2,0,0,1,24.39,5.06Z"/><path class="cls-4" d="M46.74,5.06h-2a2,2,0,0,1,0-4.06h2A2,2,0,0,1,46.74,5.06Z"/><circle class="cls-4" cx="107.71" cy="41.65" r="4.06"/><rect class="cls-5" x="30.48" y="81.35" width="8.13" height="5"/></g></svg>