<svg xmlns="http://www.w3.org/2000/svg" viewBox="0 0 128 128"><defs><style>.cls-1{fill:#949aaf;}.cls-2{fill:#8288a1;}.cls-3{fill:#fbcc88;}.cls-4{fill:#f6b756;}.cls-5{fill:#454b60;}.cls-6{fill:#42455e;}</style></defs><title>Radio Active</title><g id="Radio_Active" data-name="Radio Active"><circle class="cls-1" cx="64" cy="64" r="63"/><path class="cls-2" d="M64,127A63,63,0,0,1,1,62,63,63,0,0,0,127,62,63,63,0,0,1,64,127Z"/><circle class="cls-3" cx="64" cy="64" r="54.87"/><path class="cls-4" d="M110,94c-21.67,33.25-70.28,33.16-91.9,0C40.82,121.78,87.23,121.72,110,94Z"/><path class="cls-5" d="M87.37,23.54,72.13,49.92a16.26,16.26,0,0,0-16.26,0L40.63,23.54A46.61,46.61,0,0,1,87.37,23.54Z"/><path class="cls-5" d="M110.74,64a46.7,46.7,0,0,1-23.37,40.46L72.13,78.08A16.23,16.23,0,0,0,80.26,64Z"/><path class="cls-5" d="M55.87,78.08,40.63,104.46A46.7,46.7,0,0,1,17.26,64H47.74A16.23,16.23,0,0,0,55.87,78.08Z"/><path class="cls-6" d="M110.74,64a46.7,46.7,0,0,1-23.37,40.46c-18.79-32.52-20.91-36.71-2-4.06A46.72,46.72,0,0,0,108.53,64Z"/><path class="cls-6" d="M40.63,104.46A46.7,46.7,0,0,1,17.26,64h2.21a46.72,46.72,0,0,0,23.19,36.4C61.51,67.8,59.45,71.89,40.63,104.46Z"/><circle class="cls-5" cx="64" cy="64" r="8.13"/><path class="cls-6" d="M64,72.13A8.12,8.12,0,0,1,56.14,62c2,8.09,13.66,8.11,15.72,0A8.12,8.12,0,0,1,64,72.13Z"/></g></svg>