<svg xmlns="http://www.w3.org/2000/svg" viewBox="0 0 128 128"><defs><style>.cls-1{fill:#77cacb;}.cls-2{fill:#9dd5df;}.cls-3{fill:#e2607f;}.cls-4{fill:#fbcc88;}.cls-5{fill:#8cdd79;}.cls-6{fill:#dd4e6a;}.cls-7{fill:#f6b756;}.cls-8{fill:#7ece67;}.cls-9{fill:#d1a788;}.cls-10{fill:#cba07a;}</style></defs><title>Sample Tube</title><g id="Sample_Tube" data-name="Sample Tube"><path class="cls-1" d="M37.58,92.45v4.07a10.16,10.16,0,1,1-20.32,0V92.45a10.16,10.16,0,1,0,20.32,0Z"/><path class="cls-1" d="M74.16,92.45v4.07a10.16,10.16,0,1,1-20.32,0V92.45a10.16,10.16,0,0,0,20.32,0Z"/><path class="cls-1" d="M110.74,92.45v4.07a10.16,10.16,0,0,1-20.32,0V92.45a10.16,10.16,0,0,0,20.32,0Z"/><path class="cls-2" d="M37.58,5.06V92.45a10.16,10.16,0,1,1-20.32,0V5.06Z"/><path class="cls-3" d="M33.52,33.58V96.52a6.1,6.1,0,0,1-12.2,0V33.58C27.42,35.55,27.42,31.48,33.52,33.58Z"/><path class="cls-2" d="M74.16,5.06V92.45a10.16,10.16,0,0,1-20.32,0V5.06Z"/><path class="cls-2" d="M110.74,5.06V92.45a10.16,10.16,0,0,1-20.32,0V5.06Z"/><path class="cls-4" d="M70.1,60V96.52a6.1,6.1,0,0,1-12.2,0V60C64,62,64,57.9,70.1,60Z"/><path class="cls-5" d="M106.68,23.42v73.1a6.1,6.1,0,0,1-12.2,0V23.42C100.58,25.39,100.58,21.32,106.68,23.42Z"/><path class="cls-6" d="M33.52,92.45v4.07a6.1,6.1,0,0,1-12.2,0V92.45a6.1,6.1,0,0,0,12.2,0Z"/><path class="cls-7" d="M70.1,92.45v4.07a6.1,6.1,0,0,1-12.2,0V92.45a6.1,6.1,0,1,0,12.2,0Z"/><path class="cls-8" d="M106.68,92.45v4.07a6.1,6.1,0,0,1-12.2,0V92.45a6.1,6.1,0,0,0,12.2,0Z"/><path class="cls-9" d="M1,41.65V127H127V41.65Zm117.87,77.22H9.13V49.77H118.87Z"/><rect class="cls-1" x="17.26" y="5.06" width="20.32" height="9.07"/><path class="cls-2" d="M37.58,9.13H17.26c-5.41,0-5.33-8.13,0-8.13H37.58C43,1,42.91,9.13,37.58,9.13Z"/><rect class="cls-1" x="53.84" y="5.06" width="20.32" height="9.07"/><path class="cls-2" d="M74.16,9.13H53.84c-5.41,0-5.33-8.13,0-8.13H74.16C79.57,1,79.49,9.13,74.16,9.13Z"/><rect class="cls-1" x="90.42" y="5.06" width="20.32" height="9.07"/><path class="cls-2" d="M110.74,9.13H90.42C85,9.13,85.09,1,90.42,1h20.32C116.15,1,116.07,9.13,110.74,9.13Z"/><rect class="cls-10" x="1" y="122.94" width="126" height="4.06"/></g></svg>