<svg id="Sex" xmlns="http://www.w3.org/2000/svg" viewBox="0 0 128 128"><defs><style>.cls-1{fill:#d96bb0;}.cls-2{fill:#e27dc0;}.cls-3{fill:#7aa8d7;}.cls-4{fill:#5b8dc9;}</style></defs><title>Sex</title><path class="cls-1" d="M39.61,90.16v16.52h8.13v8.13H39.61v8.13H31.48v-8.13H23.35v-8.13h8.13V90.16A34.55,34.55,0,0,1,1,55.87C1,27.25,33.63,11.56,55.87,28c-9.35,6.74-3.06,6.62-9.73,3.72A26.41,26.41,0,1,0,55.87,39,26.44,26.44,0,0,1,62,33.62C79.67,54.61,66.77,87.1,39.61,90.16Z"/><path class="cls-2" d="M58.33,42.46a22,22,0,0,1,6.08-5.57A36.07,36.07,0,0,0,62,33.62,26.44,26.44,0,0,0,55.87,39,27,27,0,0,1,58.33,42.46Z"/><path class="cls-2" d="M55.87,28a31.55,31.55,0,0,0-3.64-2.32A36.75,36.75,0,0,0,46.66,31c-1,1.17-.78.09,3.11,2.62A33.44,33.44,0,0,1,55.87,28Z"/><path class="cls-3" d="M127,23.35l-6-6L103.41,34.63C121,57.12,105.08,90.42,76.19,90.42a34.33,34.33,0,0,1-20.32-6.63c9.36-6.83,3-6.59,9.72-3.72a26.41,26.41,0,1,0-9.72-7.31,26.44,26.44,0,0,1-6.1,5.36A34.53,34.53,0,0,1,97.29,28.56l17.58-17.34-6.16-6.16H127Z"/><path class="cls-4" d="M55.87,83.79a31.55,31.55,0,0,0,3.64,2.32A38.36,38.36,0,0,0,65,80.75c.94-1.15.88-.11-3.11-2.63A33.63,33.63,0,0,1,55.87,83.79Z"/><path class="cls-4" d="M53.43,69.26a22,22,0,0,1-6.09,5.59,34.2,34.2,0,0,0,2.43,3.27,26.44,26.44,0,0,0,6.1-5.36A24.9,24.9,0,0,1,53.43,69.26Z"/></svg>