<svg xmlns="http://www.w3.org/2000/svg" viewBox="0 0 128 128"><defs><style>.cls-1{fill:#d4d8e1;}.cls-2{fill:#c7cdd8;}.cls-3{fill:#454b60;}.cls-4{fill:#42455e;}</style></defs><title>Skull</title><g id="Skull"><path class="cls-1" d="M84.32,118.87c-4.06,2-6.09,8.13-12.19,8.13H55.87c-6.1,0-8.13-6.1-12.19-8.13-15.63-7.82-14.23-12.19-12.2-16.26,1.6-3.16.67-13.53.35-17H96.17c-.32,3.52-1.25,13.89.35,17C98.55,106.68,100,111.05,84.32,118.87Z"/><path class="cls-2" d="M96.17,85.56c-.12,1.32-.26,3-.39,4.68-1.73.81-4.56,1.69-5.34,2.19,0,2.74-.51,7.85-26.07,10.16a1.84,1.84,0,0,1-.74,0C37.58,100.24,37.58,95,37.58,92.45c0-.24-3.38-1.26-5.36-2.21-.13-1.73-.27-3.36-.39-4.68Z"/><path class="cls-2" d="M84.32,118.87c-4.06,2-6.09,8.13-12.19,8.13H55.87c-6.1,0-8.13-6.1-12.19-8.13-14.57-7.29-14.33-11.58-12.6-15.42,1.42,2.54,5,5.52,12.6,9.32,4.06,2,6.09,8.13,12.19,8.13H72.13c6.1,0,8.13-6.09,12.19-8.13,7.6-3.8,11.18-6.78,12.6-9.32C98.65,107.29,98.89,111.58,84.32,118.87Z"/><path class="cls-1" d="M86.35,100.58l-2,8.13c-8,8-32,8.59-40.64,0l-2-8.13Z"/><path class="cls-1" d="M86.35,92.45v8.13c-8.12,8.12-36.58,8.12-44.7,0V92.45"/><path class="cls-1" d="M102.71,71.82a7.27,7.27,0,0,1,1.94,4.37c0,5.25-4.82,7.64-8.48,9.37-6.58,3.07-9.82,3-9.82,6.89,0,4.07-22.35,6.1-22.35,6.1s-22.35-2-22.35-6.1c0-3.82-3.11-3.76-9.82-6.89-3.66-1.73-8.48-4.12-8.48-9.37a7.27,7.27,0,0,1,1.94-4.37,110.31,110.31,0,0,1-6-34.24C19.29,9.13,41.65,1,64,1s44.71,8.13,44.71,36.58A110.31,110.31,0,0,1,102.71,71.82Z"/><path class="cls-3" d="M41.65,72.13c-10.17,0-12.2-12.19-10.17-18.29s16.26-10.16,22.36-4.07S51.81,72.13,41.65,72.13Z"/><path class="cls-3" d="M86.35,72.13c10.17,0,12.2-12.19,10.17-18.29S80.26,43.68,74.16,49.77,76.19,72.13,86.35,72.13Z"/><path class="cls-3" d="M72.13,84.32c-2,4.07-8.13,0-8.13,0s-6.1,4.07-8.13,0S59.94,70.1,64,70.1,74.16,80.26,72.13,84.32Z"/><path class="cls-4" d="M55.53,58.78c-2.75-9.43-23-6.89-24.49,3a17.31,17.31,0,0,1,.44-8C34.42,45,59.47,42.21,55.53,58.78Z"/><path class="cls-4" d="M97,61.81c-1.49-9.87-21.72-12.55-24.49-3-3.94-16.53,21.11-13.76,24-4.94A17.31,17.31,0,0,1,97,61.81Z"/><path class="cls-4" d="M71.8,84.85c-1.52-4.19-5.1-8.66-7.8-8.66s-6.28,4.47-7.8,8.66C53.31,81,59.83,70.1,64,70.1S74.7,81,71.8,84.85Z"/><path class="cls-2" d="M64,115.81c-13,0-18-3.42-21-6.39A1,1,0,0,1,43,108c2.09-2.09,1.62,5.81,21,5.81A1,1,0,0,1,64,115.81Z"/><path class="cls-2" d="M54.87,114.24V97.84a1,1,0,0,1,2,0v16.4A1,1,0,0,1,54.87,114.24Z"/><path class="cls-2" d="M46.74,111.72V96.52a1,1,0,0,1,2,0v15.2A1,1,0,0,1,46.74,111.72Z"/><path class="cls-2" d="M64,115.81a1,1,0,0,1,0-2c19.45,0,18.94-7.9,21-5.81a1,1,0,0,1,0,1.42C82.05,112.39,77,115.81,64,115.81Z"/><path class="cls-2" d="M71.13,114.24V97.84a1,1,0,0,1,2,0v16.4A1,1,0,0,1,71.13,114.24Z"/><path class="cls-2" d="M79.26,111.72V96.52a1,1,0,0,1,2,0v15.2A1,1,0,0,1,79.26,111.72Z"/><path class="cls-2" d="M63,114.81V98.55a1,1,0,0,1,2,0v16.26A1,1,0,0,1,63,114.81Z"/><path class="cls-2" d="M64,107.68c-16.48,0-22.8-6.13-23.06-6.39-.41-.41-.29-.13-.29-8.84a1,1,0,0,1,2,0v7.68c1.37,1.11,7.68,5.55,21.35,5.55A1,1,0,0,1,64,107.68Z"/><path class="cls-2" d="M64,107.68a1,1,0,0,1,0-2c13.66,0,20-4.43,21.35-5.55V92.45a1,1,0,0,1,2,0c0,8.72.12,8.43-.29,8.84C86.8,101.55,80.48,107.68,64,107.68Z"/></g></svg>