<svg xmlns="http://www.w3.org/2000/svg" viewBox="0 0 128 128"><defs><style>.cls-1{fill:#454b60;}.cls-2{fill:#d4d8e1;}.cls-3{fill:#adb3c4;}.cls-4{fill:#9dd5df;}.cls-5{fill:#77cacb;}.cls-6{fill:#7aa8d7;}.cls-7{fill:#5b8dc9;}.cls-8{fill:#c7cdd8;}.cls-9{fill:#8288a1;}.cls-10{fill:#e2607f;}</style></defs><title>Sphygmomanometer</title><g id="Sphygmomanometer"><path class="cls-1" d="M92.45,89.39H72.13A17.28,17.28,0,0,1,54.87,72.13V62a1,1,0,0,1,2,0V72.13A15.28,15.28,0,0,0,72.13,87.39H92.45a15.28,15.28,0,0,0,15.26-15.26V47.74a1,1,0,0,1,2,0V72.13A17.28,17.28,0,0,1,92.45,89.39Z"/><path class="cls-1" d="M72.13,115.81A25.42,25.42,0,0,1,46.74,90.42V62a1,1,0,0,1,2,0V90.42a23.41,23.41,0,0,0,23.39,23.39A1,1,0,0,1,72.13,115.81Z"/><polyline class="cls-2" points="81.9 120.9 72.13 120.9 72.13 108.71 81.9 108.71"/><polyline class="cls-2" points="116.84 35.67 116.84 47.74 100.58 47.74 100.58 35.67"/><circle class="cls-3" cx="108.71" cy="19.29" r="18.29"/><circle class="cls-4" cx="108.71" cy="19.29" r="14.23"/><path class="cls-5" d="M122.86,20.79a14.23,14.23,0,0,0-28.3,0,14.23,14.23,0,1,1,28.3,0Z"/><rect class="cls-6" x="1" y="1" width="65.03" height="60.97" transform="translate(67.03 62.97) rotate(180)"/><path class="cls-6" d="M49.77,9.13V53.84A8.12,8.12,0,0,1,41.65,62H1V1H41.65A8.12,8.12,0,0,1,49.77,9.13Z"/><path class="cls-7" d="M49.77,9.13V53.84A8.12,8.12,0,0,1,41.65,62h-6.1a8.13,8.13,0,0,0,8.13-8.13V9.13A8.13,8.13,0,0,0,35.55,1h6.1A8.12,8.12,0,0,1,49.77,9.13Z"/><path class="cls-3" d="M92.45,127h12.2a12.2,12.2,0,0,0,0-24.39H92.45a12.2,12.2,0,0,0,0,24.39Z"/><rect class="cls-8" x="72.13" y="116.84" width="9.78" height="4.06"/><path class="cls-9" d="M104.65,127H92.45a12.19,12.19,0,0,1-12-14.23,12.17,12.17,0,0,0,12,10.17h12.2a12.18,12.18,0,0,0,12-10.17A12.19,12.19,0,0,1,104.65,127Z"/><rect class="cls-8" x="100.58" y="41.65" width="16.26" height="6.1"/><path class="cls-10" d="M108.71,29.42a2,2,0,1,1,2-2A2,2,0,0,1,108.71,29.42Zm0-2Z"/><path class="cls-10" d="M107.71,27.42V17.26a1,1,0,0,1,2,0V27.42A1,1,0,0,1,107.71,27.42Z"/></g></svg>