<svg xmlns="http://www.w3.org/2000/svg" viewBox="0 0 128 128"><defs><style>.cls-1{fill:#949aaf;}.cls-2{fill:#d4d8e1;}.cls-3{fill:#9dd5df;}.cls-4{fill:#c7cdd8;}.cls-5{fill:#fbcc88;}.cls-6{fill:#8288a1;}.cls-7{fill:#77cacb;}</style></defs><title>Surgery Room</title><g id="Surgery_Room" data-name="Surgery Room"><path class="cls-1" d="M37.58,118.87H90.42a6.1,6.1,0,0,1,6.1,6.1v2a0,0,0,0,1,0,0h-65a0,0,0,0,1,0,0v-2A6.1,6.1,0,0,1,37.58,118.87Z"/><rect class="cls-2" x="45.71" y="104.65" width="36.58" height="14.23"/><rect class="cls-1" x="55.87" y="86.35" width="16.26" height="18.29"/><rect class="cls-1" x="1" y="78.23" width="126" height="8.13"/><path class="cls-3" d="M7.1,66H120.9a6.1,6.1,0,0,1,6.1,6.1v6.1a0,0,0,0,1,0,0H1a0,0,0,0,1,0,0v-6.1A6.1,6.1,0,0,1,7.1,66Z"/><rect class="cls-2" x="37.58" y="66.03" width="52.84" height="12.19"/><rect class="cls-2" x="33.52" y="15.23" width="60.97" height="8.13"/><rect class="cls-4" x="33.52" y="19.29" width="60.97" height="4.06"/><path class="cls-1" d="M90.42,15.23H37.58A14.22,14.22,0,0,1,51.81,1H76.19A14.22,14.22,0,0,1,90.42,15.23Z"/><path class="cls-5" d="M45.71,29.45a6.1,6.1,0,0,1-6.1-6.1h12.2A6.1,6.1,0,0,1,45.71,29.45Z"/><path class="cls-5" d="M64,29.45a6.1,6.1,0,0,1-6.1-6.1H70.1A6.1,6.1,0,0,1,64,29.45Z"/><path class="cls-5" d="M82.29,29.45a6.1,6.1,0,0,1-6.1-6.1h12.2A6.1,6.1,0,0,1,82.29,29.45Z"/><path class="cls-6" d="M90.42,15.23H37.58a13.91,13.91,0,0,1,.59-4.07H89.83A13.91,13.91,0,0,1,90.42,15.23Z"/><rect class="cls-7" x="1" y="74.16" width="36.58" height="4.06"/><rect class="cls-7" x="90.42" y="74.16" width="36.58" height="4.06"/><rect class="cls-4" x="37.58" y="74.16" width="52.84" height="4.06"/><rect class="cls-6" x="55.87" y="86.35" width="16.26" height="4.06"/><rect class="cls-4" x="45.71" y="114.81" width="36.58" height="4.06"/></g></svg>