<svg xmlns="http://www.w3.org/2000/svg" viewBox="0 0 128 128"><defs><style>.cls-1{fill:#6ab891;}.cls-2{fill:#4da67f;}.cls-3{fill:#fbcc88;}.cls-4{fill:#f6b756;}.cls-5{fill:#949aaf;}.cls-6{fill:#8288a1;}.cls-7{fill:#d4d8e1;}.cls-8{fill:#e2607f;}.cls-9{fill:#dd4e6a;}.cls-10{fill:#c7cdd8;}.cls-11{fill:#fff;}</style></defs><title>Syrup</title><g id="Syrup"><path class="cls-1" d="M35.12,15.67l3.31-7.43A12.19,12.19,0,0,1,49.57,1h73.36A4.07,4.07,0,0,1,127,5.07V57.9A4.07,4.07,0,0,1,122.93,62H49.57a12.19,12.19,0,0,1-11.14-7.24L35.12,47.3a6.09,6.09,0,0,0-5.57-3.62H21.32V19.29h8.23A6.09,6.09,0,0,0,35.12,15.67Z"/><path class="cls-2" d="M127,51.81V57.9A4.08,4.08,0,0,1,122.93,62H49.57a12.2,12.2,0,0,1-11.14-7.24L35.12,47.3a6.08,6.08,0,0,0-5.57-3.62H21.32v-6.1h12.3a6.06,6.06,0,0,1,5.56,3.62l3.32,7.44a12.19,12.19,0,0,0,11.13,7.23h69.3A4.08,4.08,0,0,0,127,51.81Z"/><path class="cls-3" d="M31.48,74.16c0-10.16-10.16-18.29-10.16-18.29S11.16,64,11.16,74.16a10.16,10.16,0,0,0,20.32,0Z"/><path class="cls-4" d="M21.32,84.32c-5.66,0-11-4.68-10-12.41,2,11.07,18,11.1,20,0C32.37,79.65,26.94,84.32,21.32,84.32Z"/><path class="cls-5" d="M122.93,102.61c5.41,0,5.33,8.13,0,8.13H65.54a12.15,12.15,0,0,0-10.74,6.45c-3.14,6-8.91,9.81-18.24,9.81C8.11,127,1,102.61,1,102.61Z"/><path class="cls-6" d="M122.93,110.74H65.54a12.19,12.19,0,0,0-10.75,6.46c-3.13,5.94-8.9,9.8-18.23,9.8C8.11,127,1,102.61,1,102.61H2.69c3.43,6.93,12.8,20.32,33.87,20.32,9.33,0,15.1-3.86,18.23-9.79a12.19,12.19,0,0,1,10.75-6.46c61.07,0,59.21.79,60.91-2A4.07,4.07,0,0,1,122.93,110.74Z"/><rect class="cls-7" x="57.9" y="1" width="48.77" height="60.97" transform="translate(164.58 62.97) rotate(180)"/><circle class="cls-8" cx="82.29" cy="31.48" r="16.26"/><path class="cls-9" d="M82.29,47.74A16.26,16.26,0,0,1,66.15,29.45a16.26,16.26,0,0,0,32.27,0A16.26,16.26,0,0,1,82.29,47.74Z"/><rect class="cls-10" x="57.9" y="55.87" width="48.77" height="6.1" transform="translate(164.58 117.84) rotate(180)"/><path class="cls-2" d="M20.32,45.71V17.26a1,1,0,0,1,2,0V45.71A1,1,0,0,1,20.32,45.71Z"/><path class="cls-11" d="M81.29,39.61V23.35a1,1,0,0,1,2,0V39.61A1,1,0,0,1,81.29,39.61Z"/><path class="cls-11" d="M90.42,32.48H74.16a1,1,0,0,1,0-2H90.42A1,1,0,0,1,90.42,32.48Z"/></g></svg>