<svg xmlns="http://www.w3.org/2000/svg" viewBox="0 0 128 128"><defs><style>.cls-1{fill:#949aaf;}.cls-2{fill:#d4d8e1;}.cls-3{fill:#c7cdd8;}.cls-4{fill:#9dd5df;}.cls-5{fill:#77cacb;}.cls-6{fill:#adb3c4;}.cls-7{fill:#7aa8d7;}.cls-8{fill:#5b8dc9;}.cls-9{fill:#fbcc88;}</style></defs><title>USG</title><g id="USG"><path class="cls-1" d="M108.71,128a7.11,7.11,0,0,1-7.1-7.1V108.71a7.14,7.14,0,0,0-7.13-7.13,1,1,0,0,1-1-1c0-2.77,10.13-.09,10.13,8.13V120.9a5.1,5.1,0,1,0,10.2,0V72.13a1,1,0,0,1,2,0V120.9A7.11,7.11,0,0,1,108.71,128Z"/><rect class="cls-2" x="1" y="1" width="93.48" height="73.16"/><rect class="cls-3" x="1" y="70.1" width="93.48" height="4.06"/><rect class="cls-4" x="9.13" y="9.13" width="77.23" height="56.9"/><rect class="cls-5" x="9.13" y="59.94" width="77.23" height="6.1"/><rect class="cls-2" x="1" y="86.35" width="93.48" height="28.45"/><rect class="cls-3" x="1" y="108.71" width="93.48" height="6.1"/><rect class="cls-1" x="11.16" y="96.52" width="34.55" height="8.13"/><rect class="cls-1" x="25.39" y="74.16" width="44.71" height="12.19"/><rect class="cls-6" x="25.39" y="82.29" width="44.71" height="4.06"/><path class="cls-7" d="M78.23,41.65s-6.1,12.19-30.49,12.19S17.26,41.65,17.26,41.65L33.52,21.32c2.7,5.41,25.72,5.45,28.45,0Z"/><path class="cls-8" d="M78.23,41.65s-6.1,12.19-30.49,12.19S17.26,41.65,17.26,41.65l2.42-3c12.08,12.22,44,12.23,56.13,0Z"/><path class="cls-2" d="M127,35.55V49.77l-8.13,4.07V68.06a4.07,4.07,0,1,1-8.13,0V53.84l-8.13-4.07V35.55c0-2.24,5.47-6.1,12.2-6.1S127,33.31,127,35.55Z"/><path class="cls-7" d="M127,35.55v4.06c0,2.24-5.47,6.1-12.19,6.1s-12.2-3.86-12.2-6.1V35.55c0-2.24,5.47-6.1,12.2-6.1S127,33.31,127,35.55Z"/><path class="cls-9" d="M72.13,97.52H68.06a1,1,0,0,1,0-2h4.07A1,1,0,0,1,72.13,97.52Z"/><path class="cls-9" d="M84.32,97.52H80.26a1,1,0,0,1,0-2h4.06A1,1,0,0,1,84.32,97.52Z"/><path class="cls-9" d="M72.13,105.65H68.06a1,1,0,0,1,0-2h4.07A1,1,0,0,1,72.13,105.65Z"/><path class="cls-9" d="M59.94,97.52H55.87a1,1,0,0,1,0-2h4.07A1,1,0,0,1,59.94,97.52Z"/><path class="cls-9" d="M59.94,105.65H55.87a1,1,0,0,1,0-2h4.07A1,1,0,0,1,59.94,105.65Z"/><path class="cls-9" d="M84.32,105.65H80.26a1,1,0,0,1,0-2h4.06A1,1,0,0,1,84.32,105.65Z"/><path class="cls-7" d="M23.35,18.26H17.26a1,1,0,0,1,0-2h6.09A1,1,0,0,1,23.35,18.26Z"/><path class="cls-7" d="M78.23,58.9h-6.1a1,1,0,0,1,0-2h6.1A1,1,0,0,1,78.23,58.9Z"/></g></svg>