<svg xmlns="http://www.w3.org/2000/svg" viewBox="0 0 128 128"><defs><style>.cls-1{fill:#c7cdd8;}.cls-2{fill:#7aa8d7;}.cls-3{fill:#5b8dc9;}.cls-4{fill:#949aaf;}</style></defs><title>Wheelchair</title><g id="Wheelchair"><path class="cls-1" d="M30.48,82.29V52.84a1,1,0,0,1,1-1H89.42a1,1,0,0,1,0,2H32.48V82.29A1,1,0,0,1,30.48,82.29Z"/><path class="cls-1" d="M88.42,45.71V13.19a9.14,9.14,0,0,1,9.13-9.13h9.13a1,1,0,0,1,0,2H97.55a7.14,7.14,0,0,0-7.13,7.13V45.71A1,1,0,0,1,88.42,45.71Z"/><path class="cls-2" d="M27.42,53.84h63V45.71H35.55A8.13,8.13,0,0,0,27.42,53.84Z"/><path class="cls-2" d="M90.42,13.19a8.13,8.13,0,0,0-8.13,8.13V45.71h8.13Z"/><rect class="cls-3" x="82.29" y="37.58" width="8.13" height="8.13"/><path class="cls-2" d="M24.36,92.45H92.44V82.29H24.36a5.08,5.08,0,1,0,0,10.16Z"/><path class="cls-3" d="M92.44,88.39v4.06H24.36a5.08,5.08,0,0,1-4.65-7.11C21.48,89.61,22.19,88.39,92.44,88.39Z"/><path class="cls-4" d="M106.67,9.13h16.26c5.4,0,5.32-8.13,0-8.13H106.67Z"/><path class="cls-1" d="M89.42,118.87V98.55a1,1,0,0,1,2,0v20.32A1,1,0,0,1,89.42,118.87Z"/><path class="cls-1" d="M89.42,82.29V62a1,1,0,0,1,2,0V82.29A1,1,0,0,1,89.42,82.29Z"/><path class="cls-1" d="M83.39,87.35c-.4,0,1,.76-18.1-10.29a1,1,0,0,1,1-1.73l17.6,10.16A1,1,0,0,1,83.39,87.35Z"/><path class="cls-1" d="M115.05,105.65c-.4,0,1,.75-18.1-10.3a1,1,0,0,1,1-1.73l17.6,10.16A1,1,0,0,1,115.05,105.65Z"/><path class="cls-1" d="M97.45,87.35a1,1,0,0,1-.5-1.86l17.6-10.16a1,1,0,0,1,1,1.73C96.47,88.08,97.85,87.35,97.45,87.35Z"/><path class="cls-1" d="M65.79,105.65a1,1,0,0,1-.5-1.87l17.6-10.16a1,1,0,0,1,1,1.73C64.81,106.37,66.19,105.65,65.79,105.65Z"/><path class="cls-1" d="M21.32,117.84H1a1,1,0,0,1,0-2H21.32A1,1,0,0,1,21.32,117.84Z"/><path class="cls-1" d="M89.42,82.29V62a1,1,0,0,1,2,0V82.29A1,1,0,0,1,89.42,82.29Z"/><path class="cls-1" d="M20.34,116.67,24.4,92.29a1,1,0,0,1,2,.33L22.31,117A1,1,0,0,1,20.34,116.67Z"/><path class="cls-4" d="M90.41,53.84A36.58,36.58,0,1,0,127,90.42,36.58,36.58,0,0,0,90.41,53.84Zm0,65a28.45,28.45,0,1,1,28.45-28.45A28.45,28.45,0,0,1,90.41,118.87Z"/><circle class="cls-4" cx="90.41" cy="90.42" r="8.13"/><circle class="cls-1" cx="90.42" cy="90.42" r="4"/><circle class="cls-4" cx="31.48" cy="116.84" r="10.16"/><circle class="cls-1" cx="31.48" cy="116.84" r="4"/></g></svg>