<svg xmlns="http://www.w3.org/2000/svg" viewBox="0 0 128 128"><defs><style>.cls-1{fill:#7aa8d7;}.cls-2{fill:#d4d8e1;}.cls-3{fill:#5b8dc9;}.cls-4{fill:#c7cdd8;}.cls-5{fill:#9dd5df;}</style></defs><title>Xray</title><g id="Xray"><rect class="cls-1" x="5.06" y="1" width="117.87" height="126"/><path class="cls-2" d="M69.63,29.24a21.79,21.79,0,0,0-.82,5.31h0c-.21,2.61-.37,5.82-.49,8.95-.14,3.73-.21,7.35-.24,9.68,0,.63,0,1.17,0,1.59A8.5,8.5,0,0,1,66,60.24a2.73,2.73,0,0,1-3.94,0,8.5,8.5,0,0,1-2.1-5.46c0-4.55-.41-23.25-1.56-25.54S62.8,23.35,64,23.35,70.83,26.85,69.63,29.24Z"/><path class="cls-2" d="M86.35,90.42c0,8.13-8.12,9-8.12,13.71s-3.29,6.61-6.1,6.61c-4.15,0-5.38-6.09-8.13-6.09,4.06,0,4.06-2,8.13-4.07s4.06-8.13,0-8.13S66,98.55,64,98.55s-4.06-6.1-8.13-6.1-4.06,6.1,0,8.13,4.07,4.07,8.13,4.07c-2.75,0-4,6.09-8.13,6.09-2.81,0-6.1-1.87-6.1-6.61s-8.12-5.58-8.12-13.71c0-6.1,2-9.42,7.51-9.42C57.38,81,59,89.11,64,89.11S70.62,81,78.84,81C84.32,81,86.35,84.32,86.35,90.42Z"/><rect class="cls-3" x="5.06" y="121" width="117.87" height="6"/><path class="cls-4" d="M76.19,20.32c-3.42,0-5.62,3.66-6.54,5.6C68.07,24,65.15,22.35,64,22.35S59.93,24,58.35,25.92c-.92-1.94-3.12-5.6-6.54-5.6-12.69,0-13,2-13.18,2.86a1,1,0,0,0,1.95.44c.54-.53,3.91-1.3,11.23-1.3,1.59,0,3,1.47,3.9,2.95-8.55-2-15.49,13.63-15.49,23.24a60.07,60.07,0,0,0,2.43,17.05c.27,1.25,1.66,3.5,5.09,3.5s12-3.6,14.63-7.37a3.57,3.57,0,0,0,3.26,0c2.59,3.77,11.19,7.37,14.63,7.37s4.82-2.25,5.09-3.5a60.07,60.07,0,0,0,2.43-17.05c0-9.77-7.06-25.23-15.48-23.24.9-1.43,2.24-2.95,3.89-2.95,7.32,0,10.69.77,11.23,1.3a1,1,0,0,0,2-.44C89.22,22.33,88.88,20.32,76.19,20.32Zm9.34,25c-.49,1-2.72,4.56-8,3-5.47-1.65-7.69-4.33-8.22-5.08.08-2.07.18-4.13.3-6,3.25,3,10.18,5.77,14.53,2.36A33,33,0,0,1,85.53,45.33Zm-.16,10c-.66.72-3.41,3.27-8.34,1.54a24.49,24.49,0,0,1-8-4.14c0-1.92.08-4.25.15-6.69,3.08,2.81,8,4.64,10.86,4.64a7.77,7.77,0,0,0,5.68-2.39A56,56,0,0,1,85.37,55.36ZM59.42,27.85A10,10,0,0,1,64,24.36a9.84,9.84,0,0,1,4.59,3.49c.78,1.44-1.09-2.34-1.49,25.27,0,0,0,1.61,0,1.66,0,1.87-1.17,5.3-3.07,5.3s-3.07-3.43-3.07-5.3c0-3.51-.28-15.23-.75-20.31C59.6,27.57,58.8,29,59.42,27.85ZM42.63,55.35a55.76,55.76,0,0,1-.4-7c2.4,2.45,5.52,2.89,8.8,1.9a19.63,19.63,0,0,0,7.74-4.15c.07,2.44.13,4.77.15,6.69A24.3,24.3,0,0,1,51,56.9C46,58.63,43.29,56.08,42.63,55.35Zm1.21-15.77c4.52,3.54,11.59.37,14.53-2.36.12,1.87.22,3.93.3,6-.54.76-2.76,3.44-8.22,5.08-5.26,1.59-7.49-2-8-3A33,33,0,0,1,43.84,39.58ZM57.23,28.17a2.58,2.58,0,0,0,.25,1.52,20.51,20.51,0,0,1,.69,4.68c-1.68,3-10,7.05-13.59,3.19C47,31.57,52,24.35,57.23,28.17ZM47.74,67.06A2.91,2.91,0,0,1,44.57,65,50.45,50.45,0,0,1,43,58.18a9.15,9.15,0,0,0,4.76,1.3c3.39,0,8.58-2.44,11.17-4.22a9.94,9.94,0,0,0,1.89,5.16C59.1,63.35,50.9,67.06,47.74,67.06ZM83.43,65a2.9,2.9,0,0,1-3.17,2.07c-3.16,0-11.36-3.71-13.1-6.64a9.94,9.94,0,0,0,1.89-5.16c2.62,1.8,7.79,4.22,11.17,4.22A9.15,9.15,0,0,0,85,58.18,50.45,50.45,0,0,1,83.43,65Zm0-27.43c-3.71,3.93-12-.27-13.58-3.19a20.51,20.51,0,0,1,.69-4.68,2.58,2.58,0,0,0,.25-1.52C76,24.36,81,31.56,83.41,37.56Z"/><path class="cls-4" d="M62,18.26H66a1,1,0,0,0,0-2H62A1,1,0,0,0,62,18.26Z"/><path class="cls-4" d="M62,69.06H66a1,1,0,0,0,0-2H62A1,1,0,0,0,62,69.06Z"/><path class="cls-4" d="M62,75.16H66a1,1,0,0,0,0-2H62A1,1,0,0,0,62,75.16Z"/><path class="cls-4" d="M62,81.26H66a1,1,0,0,0,0-2H62A1,1,0,0,0,62,81.26Z"/><path class="cls-5" d="M31.48,12.16H15.23a1,1,0,0,1,0-2H31.48A1,1,0,0,1,31.48,12.16Z"/><path class="cls-5" d="M31.48,20.29H15.23a1,1,0,0,1,0-2H31.48A1,1,0,0,1,31.48,20.29Z"/><rect class="cls-5" x="94.48" y="106.68" width="18.29" height="10.16"/></g></svg>