<svg xmlns="http://www.w3.org/2000/svg" viewBox="0 0 128 128"><defs><style>.cls-1{fill:#e2607f;}.cls-2{fill:#dd4e6a;}</style></defs><title>Aids</title><g id="Aids"><path class="cls-1" d="M92.86,38.9c-3,14.32-9,27.77-16.32,40.2L64,62.31c7.35-10.93,15.26-25.18,18.7-37.84,2.19-8.09,2.17-14.28-.41-17.37,0,0,4.06,2,8.13,10.16S94.26,32.09,92.86,38.9Z"/><path class="cls-1" d="M64,97.72C55.42,109.15,44.09,121.24,37.58,127l-6.1-12.19H13.19A197.66,197.66,0,0,0,51.46,79.1Z"/><path class="cls-2" d="M82.7,24.47A44.43,44.43,0,0,0,64,19.29a44.43,44.43,0,0,0-18.7,5.18c-2.19-8.09-2.17-14.28.41-17.37,0,0,6.1-6.1,18.29-6.1S82.29,7.1,82.29,7.1C84.87,10.19,84.89,16.38,82.7,24.47Z"/><path class="cls-2" d="M51.46,79.1,64,97.72c-.85,1.13-1.73,2.25-2.56,3.33A203.38,203.38,0,0,1,48.68,82.37C49.63,81.27,50.57,80.2,51.46,79.1Z"/><path class="cls-2" d="M78.71,75.34c-.71,1.28-1.44,2.52-2.17,3.76L64,62.31c.83-1.24,1.65-2.48,2.44-3.72A194.88,194.88,0,0,0,78.71,75.34Z"/><path class="cls-1" d="M114.81,114.81H96.52L90.42,127C66.64,106,41.68,70.59,35.14,38.9c-1.4-6.81-1.62-13.51,2.44-21.64S45.71,7.1,45.71,7.1C35.39,19.45,65.38,80.15,114.81,114.81Z"/></g></svg>