<svg xmlns="http://www.w3.org/2000/svg" viewBox="0 0 128 128"><defs><style>.cls-1{fill:#7aa8d7;}.cls-2{fill:#5b8dc9;}.cls-3{fill:#d4d8e1;}.cls-4{fill:#c7cdd8;}.cls-5{fill:#6ab891;}.cls-6{fill:#4da67f;}</style></defs><title>Bacteria</title><g id="Bacteria"><circle class="cls-1" cx="64" cy="64" r="63"/><path class="cls-2" d="M64,127A63,63,0,0,1,1,62,63,63,0,0,0,127,62,63,63,0,0,1,64,127Z"/><circle class="cls-3" cx="64" cy="64" r="54.87"/><path class="cls-4" d="M118.77,67.05a54.85,54.85,0,0,0-109.54,0C6.86,37.34,31.46,9.13,64,9.13,96.37,9.13,121.16,37.2,118.77,67.05Z"/><circle class="cls-5" cx="33.52" cy="64" r="10.16"/><path class="cls-5" d="M99.82,55.26C97,46.11,91.42,44,87.93,43.62c-5.29-.58-4.34-8.57.82-8,5.75.64,14.77,3.86,18.81,17.13C109.15,58,101.33,60.21,99.82,55.26Z"/><path class="cls-5" d="M49.61,89.18c2.78,9.14,8.4,11.25,11.89,11.63,5.29.58,4.34,8.57-.82,8-5.75-.65-14.77-3.87-18.82-17.13C40.28,86.46,48.1,84.22,49.61,89.18Z"/><path class="cls-5" d="M72.13,74.16V62c0-5.41,8.13-5.33,8.13,0V74.16C80.26,79.57,72.13,79.49,72.13,74.16Z"/><path class="cls-5" d="M36.49,30.89l8.62-8.62c3.83-3.83,9.52,2,5.75,5.74l-8.62,8.63C38.42,40.46,32.73,34.65,36.49,30.89Z"/><circle class="cls-5" cx="93.47" cy="91.44" r="7.11"/><circle class="cls-5" cx="59.94" cy="45.71" r="6.1"/><path class="cls-6" d="M40.7,57.81a1,1,0,0,1-.71-1.7l4.32-4.31a1,1,0,0,1,1.41,1.41C41.09,57.84,41.27,57.81,40.7,57.81Z"/><path class="cls-6" d="M22,76.5a1,1,0,0,1-.71-1.71l4.31-4.31A1,1,0,0,1,27,71.89C22.4,76.53,22.59,76.5,22,76.5Z"/><path class="cls-6" d="M45,76.5c-.58,0-.45,0-5-4.61a1,1,0,0,1,1.42-1.41l4.31,4.31A1,1,0,0,1,45,76.5Z"/><path class="cls-6" d="M26.33,57.81c-.58,0-.45,0-5-4.6a1,1,0,0,1,1.42-1.41L27,56.11A1,1,0,0,1,26.33,57.81Z"/><path class="cls-6" d="M49.77,65H43.68a1,1,0,0,1,0-2h6.09A1,1,0,0,1,49.77,65Z"/><path class="cls-6" d="M23.35,65H17.26a1,1,0,0,1,0-2h6.09A1,1,0,0,1,23.35,65Z"/><path class="cls-6" d="M32.52,80.26v-6.1a1,1,0,0,1,2,0v6.1A1,1,0,0,1,32.52,80.26Z"/><path class="cls-6" d="M32.52,53.84v-6.1a1,1,0,0,1,2,0v6.1A1,1,0,0,1,32.52,53.84Z"/><path class="cls-6" d="M31.7,67.93a1.5,1.5,0,0,1-2.12-2.12A1.5,1.5,0,0,1,31.7,67.93Z"/><path class="cls-6" d="M38.89,66.5a1.5,1.5,0,0,1-2.12-2.12A1.5,1.5,0,0,1,38.89,66.5Z"/><path class="cls-6" d="M33.14,60.75A1.5,1.5,0,0,1,31,58.63,1.5,1.5,0,0,1,33.14,60.75Z"/><circle class="cls-6" cx="74.16" cy="27.42" r="3"/><circle class="cls-6" cx="96.52" cy="70.1" r="3"/><circle class="cls-6" cx="59.94" cy="78.23" r="3"/></g></svg>