<svg xmlns="http://www.w3.org/2000/svg" viewBox="0 0 128 128"><defs><style>.cls-1{fill:#e2607f;}.cls-2{fill:#dd4e6a;}.cls-3{fill:#d4d8e1;}.cls-4{fill:#c7cdd8;}</style></defs><title>Blood</title><g id="Blood"><path class="cls-1" d="M15.23,78.23C15.23,37.58,64,1,64,1s48.77,36.58,48.77,77.23a48.77,48.77,0,0,1-97.54,0Z"/><path class="cls-2" d="M64,127A48.77,48.77,0,0,1,15.33,75.18a48.77,48.77,0,0,0,97.34,0A48.77,48.77,0,0,1,64,127Z"/><circle class="cls-3" cx="64" cy="78.23" r="28.45"/><path class="cls-4" d="M64,106.68a28.46,28.46,0,0,1-28.29-31.5,28.45,28.45,0,0,0,56.58,0A28.46,28.46,0,0,1,64,106.68Z"/><polygon class="cls-1" points="80.26 74.16 68.06 74.16 68.06 61.97 59.94 61.97 59.94 74.16 47.74 74.16 47.74 82.29 59.94 82.29 59.94 94.48 68.06 94.48 68.06 82.29 80.26 82.29 80.26 74.16"/><rect class="cls-2" x="59.94" y="88.39" width="8.13" height="6.1"/></g></svg>