<svg xmlns="http://www.w3.org/2000/svg" viewBox="0 0 128 128"><defs><style>.cls-1{fill:#e2607f;}.cls-2{fill:#d4d8e1;}.cls-3{fill:#dd4e6a;}.cls-4{fill:#949aaf;}</style></defs><title>Blood Transfusion</title><g id="Blood_Transfusion" data-name="Blood Transfusion"><path class="cls-1" d="M72.13,128H59.94a21.35,21.35,0,0,1-21.33-21.32V40.63a16.28,16.28,0,1,0-32.55,0V127a1,1,0,0,1-2,0V40.63a18.28,18.28,0,1,1,36.55,0v66.05A19.35,19.35,0,0,0,59.94,126H72.13a19.35,19.35,0,0,0,19.32-19.32,1,1,0,0,1,2,0A21.35,21.35,0,0,1,72.13,128Z"/><path class="cls-2" d="M96.52,98.49C114.81,98,127,94.61,127,90.42V17.26c0-4.49-14.35-8.13-34.55-8.13S57.9,12.77,57.9,17.26V90.42c0,4.19,12.2,7.62,30.49,8.07"/><path class="cls-3" d="M109.74,100.58V86.35a1,1,0,0,1,2,0v14.23A1,1,0,0,1,109.74,100.58Z"/><path class="cls-3" d="M73.16,100.58V86.35a1,1,0,0,1,2,0v14.23A1,1,0,0,1,73.16,100.58Z"/><path class="cls-2" d="M100.58,10.33c-.15,0-1,0-1-1.2a7.13,7.13,0,1,0-14.26,0c0,1.16-.85,1.2-1,1.2C81.66,10.33,84.05,0,92.45,0S103.28,10.33,100.58,10.33Z"/><path class="cls-1" d="M118.87,29.45v57.6c-3.74,1.32-10.22,3-22.35,3.31v16.32H88.39V90.36c-12.14-.31-18.62-2-22.36-3.31V29.45C94.48,37.58,90.42,17.26,118.87,29.45Z"/><path class="cls-3" d="M80.26,64a12.2,12.2,0,0,0,24.39,0c0-12.19-12.2-22.35-12.2-22.35S80.26,51.81,80.26,64Z"/><polygon class="cls-4" points="9.13 96.52 1 96.52 1 110.74 5.07 112.77 9.13 110.74 9.13 96.52"/><path class="cls-4" d="M39.61,78.23a4.07,4.07,0,0,0,4.07-4.07V64a4.07,4.07,0,0,0-8.13,0V74.16A4.07,4.07,0,0,0,39.61,78.23Z"/><rect class="cls-3" x="88.39" y="99.68" width="8.13" height="7"/></g></svg>