<svg xmlns="http://www.w3.org/2000/svg" viewBox="0 0 128 128"><defs><style>.cls-1{fill:#d4d8e1;}.cls-2{fill:#c7cdd8;}.cls-3{fill:#e2607f;}.cls-4{fill:#dd4e6a;}</style></defs><title>Dental</title><g id="Dental"><path class="cls-1" d="M108.71,78.23c6.1,28.45-1.87,48.77-14.23,48.77C80.26,127,84.32,80.26,64,80.26S47.74,127,33.52,127c-12.36,0-20.33-20.32-14.23-48.77C21.85,66.3,5.07,49.77,5.07,33.52,5.07,9.13,19.29,1,35.55,1c19.5,0,19.92,7.84,31.86,5.83,5.9-1,8.72-4.61,18.5-5.5a2,2,0,0,1,.49-.06C110.68-1,122.93,11,122.93,33.52,122.93,49.77,106.15,66.3,108.71,78.23Z"/><path class="cls-2" d="M110.72,93.83c.81,20-6.28,33.17-16.24,33.17C80.26,127,84.32,80.26,64,80.26S47.74,127,33.52,127c-10,0-17.05-13.17-16.24-33.17.71,16.53,7.34,27.07,16.24,27.07,14.22,0,10.16-46.74,30.48-46.74S80.26,120.9,94.48,120.9C103.38,120.9,110,110.36,110.72,93.83Z"/><polygon class="cls-3" points="108.71 25.39 98.55 25.39 98.55 15.23 90.42 15.23 90.42 25.39 80.26 25.39 80.26 33.52 90.42 33.52 90.42 43.68 98.55 43.68 98.55 33.52 108.71 33.52 108.71 25.39"/><rect class="cls-4" x="90.42" y="37.58" width="8.13" height="6.1"/><path class="cls-2" d="M85,1.44c-18.1,2.87-28.11,19.22-28.22,19.4a1,1,0,0,1-1.72-1,50.74,50.74,0,0,1,12.4-13C73.17,5.88,75.56,2.59,85,1.44Z"/></g></svg>