<svg xmlns="http://www.w3.org/2000/svg" viewBox="0 0 128 128"><defs><style>.cls-1{fill:#fbcc88;}.cls-2{fill:#7aa8d7;}.cls-3{fill:#5b8dc9;}.cls-4{fill:#6ab891;}</style></defs><title>DNA</title><g id="DNA"><path class="cls-1" d="M74.16,6.07H27.73a1,1,0,0,1,0-2H74.16A1,1,0,0,1,74.16,6.07Z"/><path class="cls-1" d="M100.27,6.07h-18a1,1,0,0,1,0-2h18A1,1,0,0,1,100.27,6.07Z"/><path class="cls-1" d="M96.09,22.32H55.87a1,1,0,0,1,0-2H96.09A1,1,0,0,1,96.09,22.32Z"/><path class="cls-1" d="M47.74,22.32H31.91a1,1,0,0,1,0-2H47.74A1,1,0,0,1,47.74,22.32Z"/><path class="cls-1" d="M59.94,38.58H40.75a1,1,0,0,1,0-2H59.94A1,1,0,0,1,59.94,38.58Z"/><path class="cls-1" d="M87.25,38.58H68.06a1,1,0,0,1,0-2H87.25A1,1,0,0,1,87.25,38.58Z"/><path class="cls-1" d="M100.27,123.93H53.84a1,1,0,0,1,0-2h46.43A1,1,0,0,1,100.27,123.93Z"/><path class="cls-1" d="M45.71,123.93h-18a1,1,0,0,1,0-2h18A1,1,0,0,1,45.71,123.93Z"/><path class="cls-1" d="M72.13,107.67H31.91a1,1,0,0,1,0-2H72.13A1,1,0,0,1,72.13,107.67Z"/><path class="cls-1" d="M96.09,107.67H80.26a1,1,0,0,1,0-2H96.09A1,1,0,0,1,96.09,107.67Z"/><path class="cls-1" d="M87.25,91.42H68.06a1,1,0,0,1,0-2H87.25A1,1,0,0,1,87.25,91.42Z"/><path class="cls-1" d="M59.94,91.42H40.75a1,1,0,0,1,0-2H59.94A1,1,0,0,1,59.94,91.42Z"/><path class="cls-2" d="M108.71,127h-8.13c0-1.4-.55-33-32.86-55.74-5.61-3.89-10-6.18-14.71-9.77C19.72,36.42,19.29,2.53,19.29,1h8.13c0,1.4.55,33,32.86,55.74,5.61,3.9,10,6.18,14.71,9.78C108.28,91.57,108.71,125.47,108.71,127Z"/><path class="cls-3" d="M75,66.52c-4.11,2.94-7,4.51-7.27,4.73-5.61-3.89-10-6.18-14.71-9.77,2.13-1.53,4.41-3,6.8-4.45.71-.44-.15-.57,4.19,2.19C69.94,63,71.92,64.17,75,66.52Z"/><path class="cls-2" d="M19.29,127c0-1.67.49-41.2,42.62-66.48C100,37.68,100.57,2.48,100.58,1h8.13c0,1.67-.49,41.2-42.62,66.48C28,90.31,27.43,125.52,27.42,127Z"/><circle class="cls-4" cx="78.22" cy="5.07" r="4.06"/><circle class="cls-4" cx="51.81" cy="21.32" r="4.06"/><circle class="cls-4" cx="64" cy="37.58" r="4.06"/><circle class="cls-4" cx="49.78" cy="122.93" r="4.06"/><circle class="cls-4" cx="76.19" cy="106.67" r="4.06"/><circle class="cls-4" cx="64" cy="90.41" r="4.06"/></g></svg>