<svg xmlns="http://www.w3.org/2000/svg" viewBox="0 0 128 128"><defs><style>.cls-1{fill:#7aa8d7;}.cls-2{fill:#5b8dc9;}.cls-3{fill:#d4d8e1;}.cls-4{fill:#c7cdd8;}.cls-5{fill:#e2607f;}.cls-6{fill:#dd4e6a;}</style></defs><title>Emergency Call</title><g id="Emergency_Call" data-name="Emergency Call"><path class="cls-1" d="M102.92,114.18l-8.62,8.61c-9.53,9.53-42.94,3-67.55-21.54S-4.32,43.23,5.21,33.7c7.65-7.62.36-.37,8.62-8.61a4.06,4.06,0,0,1,5.75,0L39.7,45.2a4.08,4.08,0,0,1,0,5.75C29,61.61,26.27,64.39,25.33,65.32,17.59,73,55,110.42,62.68,102.67c9.42-9.42,13.24-13.25,14.37-14.36a4.06,4.06,0,0,1,5.75,0l20.12,20.11A4.09,4.09,0,0,1,102.92,114.18Z"/><path class="cls-2" d="M25,65.69c-1.07-3-1-5.2.29-6.46L39.53,45A4.11,4.11,0,0,1,39.7,51C24.42,66.23,25.17,65.44,25,65.69Z"/><path class="cls-2" d="M102.92,114.18l-8.62,8.61c-9.53,9.53-42.94,3-67.55-21.54C8.1,82.6-.13,58.86,1.13,44.33c1.05,14.51,9.38,34.59,25.62,50.82,24.61,24.59,58,31.08,67.55,21.55l8.45-8.44A4.11,4.11,0,0,1,102.92,114.18Z"/><path class="cls-3" d="M90.42,1C56.6,1,40.87,43.32,66.68,65.38L57.9,74.16H90.42A36.58,36.58,0,0,0,90.42,1Z"/><path class="cls-4" d="M90.42,74.16H57.9l8.78-8.78A36.5,36.5,0,0,1,54,34.54a36.59,36.59,0,0,0,72.92,0A36.59,36.59,0,0,1,90.42,74.16Z"/><circle class="cls-5" cx="90.42" cy="37.58" r="24.39"/><path class="cls-6" d="M90.42,62C75.48,62,64.23,48.61,66.24,34.54a24.37,24.37,0,0,0,48.36,0C116.62,48.65,105.34,62,90.42,62Z"/><polygon class="cls-3" points="104.64 33.52 94.48 33.52 94.48 23.36 86.35 23.36 86.35 33.52 76.19 33.52 76.19 41.65 86.35 41.65 86.35 51.81 94.48 51.81 94.48 41.65 104.64 41.65 104.64 33.52"/><rect class="cls-3" x="86.35" y="47.74" width="8.13" height="4.06"/><path class="cls-2" d="M99.09,118l-1.41,1.41L71.81,93.54l1.41-1.41Z"/><path class="cls-2" d="M35.87,54.78l-1.41,1.41L8.59,30.33,10,28.91Z"/></g></svg>