<svg xmlns="http://www.w3.org/2000/svg" viewBox="0 0 128 128"><defs><style>.cls-1{fill:#949aaf;}.cls-2{fill:#7aa8d7;}.cls-3{fill:#9b756d;}.cls-4{fill:#d4d8e1;}.cls-5{fill:#9dd5df;}.cls-6{fill:#c7cdd8;}</style></defs><title>Infusion</title><g id="Infusion"><path class="cls-1" d="M121.94,100.58V2H79.13a5.07,5.07,0,0,1-5,4.06C69.46,6.06,67.81,0,70.1,0a1,1,0,0,1,1,1,3.07,3.07,0,0,0,6.13,0,1,1,0,0,1,1-1h44.71a1,1,0,0,1,1,1v99.58A1,1,0,0,1,121.94,100.58Z"/><path class="cls-2" d="M56.89,128a18.3,18.3,0,0,1-18.28-18.27V40.63a16.28,16.28,0,1,0-32.55,0V127a1,1,0,0,1-2,0V40.63a18.28,18.28,0,1,1,36.55,0v69.1a16.28,16.28,0,0,0,32.55,0V78.23a1,1,0,0,1,2,0v31.5A18.3,18.3,0,0,1,56.89,128Z"/><polyline class="cls-3" points="127 127 127 100.58 118.87 100.58 118.87 127"/><path class="cls-4" d="M94.48,17.26V66c0,2.73-6,5-14.22,5.82v6.38H68.06V71.85c-8.24-.78-14.22-3.09-14.22-5.82V17.26H68.06a6.1,6.1,0,0,1,12.2,0Z"/><path class="cls-5" d="M89.48,22.26V64.64c-3.59,1.86-10.19,2.28-14.22,2.66v5.93h-2.2V67.3c-4-.38-10.62-.8-14.22-2.66V22.26Z"/><path class="cls-4" d="M87.39,74.16v-6.1a1,1,0,0,1,2,0v6.1A1,1,0,0,1,87.39,74.16Z"/><path class="cls-6" d="M94.48,30.48v2H86.35a1,1,0,0,1,0-2Z"/><path class="cls-6" d="M94.48,38.61v2H88.39a1,1,0,0,1,0-2Z"/><path class="cls-6" d="M94.48,46.74v2H86.35a1,1,0,0,1,0-2Z"/><path class="cls-6" d="M94.48,54.87v2H88.39a1,1,0,0,1,0-2Z"/><path class="cls-1" d="M74.16,104.65a4.07,4.07,0,0,0,4.07-4.07V92.45a4.07,4.07,0,0,0-8.13,0v8.13A4.07,4.07,0,0,0,74.16,104.65Z"/><polygon class="cls-1" points="9.13 96.52 1 96.52 1 110.74 5.07 112.77 9.13 110.74 9.13 96.52"/><path class="cls-1" d="M73.16,11.16V5.06a1,1,0,0,1,2,0v6.1A1,1,0,0,1,73.16,11.16Z"/></g></svg>