<svg xmlns="http://www.w3.org/2000/svg" viewBox="0 0 128 128"><defs><style>.cls-1{fill:#d4d8e1;}.cls-2{fill:#9dd5df;}.cls-3{fill:#77cacb;}.cls-4{fill:#c3e1f5;}</style></defs><title>Masker</title><g id="Masker"><path class="cls-1" d="M31.48,87.35C15.92,87.35,0,83.61,0,55.87,0,47.7,2.12,42.4,6.29,40.1c7.07-3.88,17.17,2.46,17.6,2.73a1,1,0,0,1,.45.66C33,89,32.7,86.46,32.25,87A1,1,0,0,1,31.48,87.35ZM11.56,40.85c-7.67,0-9.56,7.33-9.56,15C2,79.78,13.25,85.11,30.27,85.35l-7.81-41C21.1,43.52,16.19,40.85,11.56,40.85Z"/><path class="cls-1" d="M96.52,87.35a1,1,0,0,1-1-1.18c8.67-45.49,8-43,8.58-43.34s10.54-6.6,17.6-2.73c4.17,2.3,6.29,7.6,6.29,15.77C128,83.61,112.08,87.35,96.52,87.35Zm9-43L97.73,85.35c17-.24,28.27-5.57,28.27-29.48,0-7.38-1.77-12.1-5.25-14C115.4,38.92,107.34,43.26,105.54,44.3Z"/><path class="cls-2" d="M96.52,86.33c-19.09,19.09-45.95,19.09-65,0-6.08-6.08-16.25-42.68-8.13-42.68C41.65,43.65,47.74,27.4,64,27.4s22.35,16.25,40.65,16.25C112.77,43.65,102.61,80.24,96.52,86.33Z"/><path class="cls-3" d="M96.52,86.33c-19.09,19.09-45.95,19.09-65,0-4.87-4.87-12.39-29.31-11-38.94,1,10.33,6.56,28.43,11,32.84,19.09,19.1,46,19.09,65,0,4.73-4.73,10-23.31,11-32.84C108.91,57,101.38,81.47,96.52,86.33Z"/><path class="cls-4" d="M107.35,54.77c-.43-1.87-1.28-3-2.7-3-18.3,0-24.39-16.25-40.65-16.25S41.65,51.78,23.35,51.78c-1.42,0-2.27,1.12-2.7,3-.77-6.36-.22-11.12,2.7-11.12C41.65,43.65,47.74,27.4,64,27.4s22.35,16.25,40.65,16.25C107.57,43.65,108.12,48.41,107.35,54.77Z"/><path class="cls-3" d="M92.45,60.94C86,60.94,78,52.81,64,52.81s-22,8.13-28.45,8.13a1,1,0,0,1,0-2c5.68,0,14.06-8.13,28.45-8.13s22.81,8.13,28.45,8.13A1,1,0,0,1,92.45,60.94Z"/><path class="cls-3" d="M90.42,73.13c-.41,0-16.25-4.07-26.42-4.07-9.92,0-26,4-26.18,4a1,1,0,0,1-.48-1.94C38,71,53.83,67.06,64,67.06S90,71,90.66,71.16A1,1,0,0,1,90.42,73.13Z"/><path class="cls-3" d="M41.5,85.31a1,1,0,0,1,.29-2c18,2.63,26.4,2.63,44.42,0a1,1,0,0,1,.29,2C68.65,88,59.38,88,41.5,85.31Z"/></g></svg>