<svg xmlns="http://www.w3.org/2000/svg" viewBox="0 0 128 128"><defs><style>.cls-1{fill:#d4d8e1;}.cls-2{fill:#e2607f;}.cls-3{fill:#c7cdd8;}.cls-4{fill:#dd4e6a;}.cls-5{fill:#9dd5df;}.cls-6{fill:#77cacb;}.cls-7{fill:#fbcc88;}.cls-8{fill:#f6b756;}.cls-9{fill:#fff;}</style></defs><title>Medicine</title><g id="Medicine"><path class="cls-1" d="M108.22,96.52a8.62,8.62,0,0,1,8.62,8.61c0,4.71-3,6.56-9.15,12.72S99.55,127,95,127a8.63,8.63,0,0,1-7.66-12.58C102.45,98.32,103.68,96.52,108.22,96.52Z"/><path class="cls-2" d="M116.84,105.13c0,4.71-3,6.56-9.15,12.72L95.52,105.68c5.91-6.21,8.31-9.16,12.7-9.16A8.64,8.64,0,0,1,116.84,105.13Z"/><path class="cls-3" d="M107.69,117.85C101.44,124.11,99.55,127,95,127a8.59,8.59,0,0,1-8.43-6.93,8.51,8.51,0,0,0,6.4,2.87c4.63,0,6.54-3,11.71-8.13Z"/><path class="cls-4" d="M116.84,105.13c0,4.71-3,6.56-9.15,12.72l-3-3,7.64-7.64a8.57,8.57,0,0,0,2.33-7.79A8.54,8.54,0,0,1,116.84,105.13Z"/><path class="cls-5" d="M76.19,111.68v11.26A4.08,4.08,0,0,1,72.13,127H15.23a4.08,4.08,0,0,1-4.07-4.06V47.27A16.23,16.23,0,0,1,22.28,31.85l7.17-2.4V17.26H57.9V29.45l7.18,2.4A16.23,16.23,0,0,1,76.19,47.27V93.55"/><path class="cls-6" d="M76.19,116.84v6.1A4.08,4.08,0,0,1,72.13,127H15.23a4.08,4.08,0,0,1-4.07-4.06v-6.1a4.08,4.08,0,0,0,4.07,4.06h56.9A4.08,4.08,0,0,0,76.19,116.84Z"/><polyline class="cls-1" points="72.84 106.68 11.16 106.68 11.16 57.9 76.19 57.9 76.19 93.55"/><polyline class="cls-3" points="72.84 106.68 11.16 106.68 11.16 100.58 76.19 100.58 76.19 105.04"/><circle class="cls-2" cx="43.68" cy="82.29" r="16.26"/><path class="cls-4" d="M43.68,98.55A16.26,16.26,0,0,1,27.54,80.26a16.26,16.26,0,0,0,32.27,0A16.26,16.26,0,0,1,43.68,98.55Z"/><circle class="cls-7" cx="84.32" cy="102.61" r="12.19"/><path class="cls-8" d="M84.32,114.81a12.19,12.19,0,0,1-12-14.23c2.23,13.49,21.79,13.48,24,0A12.19,12.19,0,0,1,84.32,114.81Z"/><rect class="cls-1" x="25.39" y="1" width="36.58" height="16.26"/><rect class="cls-3" x="25.39" y="11.16" width="36.58" height="6.1"/><rect class="cls-6" x="29.45" y="17.26" width="28.45" height="6.1"/><path class="cls-9" d="M42.68,90.42V74.16a1,1,0,0,1,2,0V90.42A1,1,0,0,1,42.68,90.42Z"/><path class="cls-9" d="M51.81,83.29H35.55a1,1,0,0,1,0-2H51.81A1,1,0,0,1,51.81,83.29Z"/><path class="cls-8" d="M78.23,109.71a1,1,0,0,1-.71-1.71L89.71,95.81a1,1,0,0,1,1.42,1.41C77.83,110.51,78.82,109.71,78.23,109.71Z"/></g></svg>