<svg xmlns="http://www.w3.org/2000/svg" viewBox="0 0 128 128"><defs><style>.cls-1{fill:#8288a1;}.cls-2{fill:#d4d8e1;}.cls-3{fill:#c7cdd8;}.cls-4{fill:#e2607f;}.cls-5{fill:#dd4e6a;}.cls-6{fill:#949aaf;}</style></defs><title>Medical Kit</title><g id="Medical_Kit" data-name="Medical Kit"><path class="cls-1" d="M30.5,25.19l2.87-14.34a8.48,8.48,0,0,1,8.28-6.79,1,1,0,0,1,0,2,6.46,6.46,0,0,0-6.32,5.18L32.46,25.58A1,1,0,0,1,30.5,25.19Z"/><path class="cls-1" d="M95.54,25.58,92.67,11.24a6.46,6.46,0,0,0-6.32-5.18,1,1,0,0,1,0-2,8.48,8.48,0,0,1,8.28,6.79L97.5,25.19A1,1,0,0,1,95.54,25.58Z"/><path class="cls-2" d="M21.32,49.77H1V33.52a8.12,8.12,0,0,1,8.13-8.13H118.87A8.12,8.12,0,0,1,127,33.52V49.77H106.68"/><path class="cls-2" d="M106.68,49.77h16.26v69.1a8.13,8.13,0,0,1-8.13,8.13H13.19a8.13,8.13,0,0,1-8.13-8.13V49.77H21.32"/><path class="cls-3" d="M122.94,112.77v6.1a8.13,8.13,0,0,1-8.13,8.13H13.19a8.13,8.13,0,0,1-8.13-8.13v-6.1a8.12,8.12,0,0,0,8.13,8.13H114.81A8.12,8.12,0,0,0,122.94,112.77Z"/><rect class="cls-3" x="5.06" y="49.77" width="117.87" height="6.1"/><circle class="cls-4" cx="64" cy="92.45" r="24.39"/><path class="cls-5" d="M64,116.84c-14.93,0-26.2-13.36-24.18-27.44a24.37,24.37,0,0,0,48.36,0C90.2,103.52,78.92,116.84,64,116.84Z"/><polygon class="cls-2" points="78.23 88.39 68.06 88.39 68.06 78.23 59.94 78.23 59.94 88.39 49.77 88.39 49.77 96.52 59.94 96.52 59.94 106.68 68.06 106.68 68.06 96.52 78.23 96.52 78.23 88.39"/><path class="cls-6" d="M31.48,74.16A8.13,8.13,0,0,1,23.35,66V53.84H39.61V66A8.13,8.13,0,0,1,31.48,74.16Z"/><path class="cls-6" d="M96.52,74.16A8.13,8.13,0,0,1,88.39,66V53.84h16.26V66A8.13,8.13,0,0,1,96.52,74.16Z"/><path class="cls-6" d="M82.29,9.13H45.71c-5.41,0-5.33-8.13,0-8.13H82.29C87.7,1,87.62,9.13,82.29,9.13Z"/><rect class="cls-6" x="21.32" y="45.71" width="20.32" height="8.13"/><rect class="cls-6" x="86.35" y="45.71" width="20.32" height="8.13"/><rect class="cls-1" x="23.35" y="53.84" width="16.26" height="4.06"/><rect class="cls-1" x="88.39" y="53.84" width="16.26" height="4.06"/><rect class="cls-3" x="59.94" y="100.58" width="8.13" height="6.1"/></g></svg>