<svg xmlns="http://www.w3.org/2000/svg" viewBox="0 0 128 128"><defs><style>.cls-1{fill:#9b756d;}.cls-2{fill:#8a6762;}.cls-3{fill:#f2c4b0;}.cls-4{fill:#eab39b;}.cls-5{fill:#d4d8e1;}.cls-6{fill:#c7cdd8;}.cls-7{fill:#d96bb0;}.cls-8{fill:#47566a;}.cls-9{fill:#e2607f;}</style></defs><title>Nurse</title><g id="Nurse"><path class="cls-1" d="M79.57,14.68A23,23,0,0,1,94.48,36.24V86.35h-61V36.24A23,23,0,0,1,48.43,14.68Z"/><rect class="cls-2" x="33.52" y="80.26" width="60.97" height="6.1"/><path class="cls-3" d="M88.39,45.71V55.87a24.39,24.39,0,0,1-48.78,0V46.1s13.78-6.28,14.21-14.23h.34C62.44,41.75,80.36,45.71,88.39,45.71Z"/><path class="cls-4" d="M88.39,45.71v4.06c-6.38,0-21.61-2.56-32.48-10.22-3.55,4.32-12.56,10.61-16.3,10.61V46.1s13.78-6.28,14.21-14.23h.34C62.44,41.75,80.36,45.71,88.39,45.71Z"/><path class="cls-4" d="M88.39,51.81v4.06a24.39,24.39,0,0,1-48.78,0V51.81a24.32,24.32,0,0,0,7.14,17.25C62,84.26,88.39,73.61,88.39,51.81Z"/><path class="cls-5" d="M110.74,127H17.26c0-.17,3-19.75,3-19.88a24.35,24.35,0,0,1,21.4-20.6c2,0-9.25-.17,42-.17a24.4,24.4,0,0,1,24.1,20.77C110.4,124.65,110.17,123.2,110.74,127Z"/><path class="cls-5" d="M81.8,3.48c-3.18,15.85-2.49,12.44-3.57,17.84H49.77c-1-5.22-.27-1.37-3.57-17.84A65.15,65.15,0,0,1,81.8,3.48Z"/><path class="cls-4" d="M39.61,57.9h-2a6.1,6.1,0,1,1,0-12.19h2Z"/><path class="cls-4" d="M88.39,45.71h2a6.1,6.1,0,1,1,0,12.19h-2Z"/><path class="cls-2" d="M88.39,41.65v4.06c-6.81,0-23.7-3.11-33.45-12.13C52.1,39.9,41.49,46.1,39.61,46.1V41.81c4-2,11.91-7,12.18-12.07a2.07,2.07,0,0,1,3.82-1.32C63.49,37.8,80.83,41.65,88.39,41.65Z"/><path class="cls-6" d="M86.35,86.52c0,8.33-3,22.19-14.22,22.19A14.14,14.14,0,0,1,64,106.33a14.14,14.14,0,0,1-8.13,2.38c-11.18,0-14.18-13.86-14.22-22.19C44,86.25,84.05,86.25,86.35,86.52Z"/><path class="cls-5" d="M82.29,86.35s0,18.3-10.16,18.3c-6.1,0-8.13-4.07-8.13-4.07s-2,4.07-8.13,4.07c-10.16,0-10.16-18.3-10.16-18.3Z"/><path class="cls-3" d="M72.13,78.86v7.49L64,100.58,55.87,86.35V78.86A24.33,24.33,0,0,0,72.13,78.86Z"/><path class="cls-6" d="M110.74,127H17.26c.45-3,.15-1,.91-6.1h91.66C110.51,125.52,110.3,124.07,110.74,127Z"/><polygon class="cls-6" points="79.04 17.26 78.23 21.32 49.77 21.32 48.96 17.26 79.04 17.26"/><path class="cls-7" d="M59,69A1,1,0,0,1,60.4,67.6a5.09,5.09,0,0,0,7.2,0A1,1,0,0,1,69,69,7.11,7.11,0,0,1,59,69Z"/><path class="cls-8" d="M50.81,51.81v-2a1,1,0,0,1,2,0v2A1,1,0,0,1,50.81,51.81Z"/><path class="cls-8" d="M73.16,51.81v-2a1,1,0,0,1,2,0v2A1,1,0,0,1,73.16,51.81Z"/><path class="cls-9" d="M68.06,12.16H59.94a1,1,0,0,1,0-2h8.12A1,1,0,0,1,68.06,12.16Z"/><path class="cls-9" d="M63,15.23V7.1a1,1,0,0,1,2,0v8.13A1,1,0,0,1,63,15.23Z"/><path class="cls-6" d="M65,102.61V127H63V102.61A1,1,0,0,1,65,102.61Z"/><path class="cls-6" d="M94.48,117.84H80.26a1,1,0,0,1,0-2H94.48A1,1,0,0,1,94.48,117.84Z"/></g></svg>