<svg xmlns="http://www.w3.org/2000/svg" viewBox="0 0 128 128"><defs><style>.cls-1{fill:#f2c4b0;}.cls-2{fill:#eab39b;}.cls-3{fill:#ffece6;}.cls-4{fill:#d4d8e1;}.cls-5{fill:#c7cdd8;}.cls-6{fill:#454b60;}.cls-7{fill:#e2607f;}.cls-8{fill:#dd4e6a;}.cls-9{fill:#42455e;}.cls-10{fill:#fff;}</style></defs><title>ophthalmologists</title><g id="ophthalmologists"><path class="cls-1" d="M127,64C96.18,123.64,31.78,123.56,1,64,31.82,4.36,96.22,4.44,127,64Z"/><path class="cls-2" d="M127,64C96.18,123.63,31.79,123.57,1,64,31.82,115.48,96.19,115.46,127,64Z"/><path class="cls-3" d="M1,64C31.82,4.37,96.21,4.43,127,64,96.18,12.52,31.81,12.54,1,64Z"/><path class="cls-4" d="M127,64C96.18,107.38,31.78,107.31,1,64,31.82,20.62,96.22,20.69,127,64Z"/><path class="cls-5" d="M127,64C96.18,107.37,31.79,107.32,1,64,31.86,99.26,96.21,99.18,127,64Z"/><path class="cls-5" d="M1,64c30.82-43.37,95.21-43.32,126,0C96.14,28.74,31.79,28.82,1,64Z"/><circle class="cls-6" cx="64" cy="59.94" r="28.45"/><circle class="cls-7" cx="64" cy="59.94" r="16.26"/><path class="cls-8" d="M64,76.19A16.27,16.27,0,0,1,47.86,57.9a16.27,16.27,0,0,0,32.28,0A16.27,16.27,0,0,1,64,76.19Z"/><path class="cls-9" d="M64,88.39c-17,0-29.79-14.85-28.37-30.49a28.44,28.44,0,0,0,56.74,0C93.8,73.59,81,88.39,64,88.39Z"/><path class="cls-10" d="M63,68.06V51.81a1,1,0,0,1,2,0V68.06A1,1,0,0,1,63,68.06Z"/><path class="cls-10" d="M72.13,60.94H55.87a1,1,0,0,1,0-2H72.13A1,1,0,0,1,72.13,60.94Z"/></g></svg>