<svg xmlns="http://www.w3.org/2000/svg" viewBox="0 0 128 128"><defs><style>.cls-1{fill:#6ab891;}.cls-2{fill:#4da67f;}.cls-3{fill:#7aa8d7;}.cls-4{fill:#5b8dc9;}.cls-5{fill:#d4d8e1;}.cls-6{fill:#c7cdd8;}.cls-7{fill:#e2607f;}.cls-8{fill:#dd4e6a;}</style></defs><title>Place Holder</title><g id="Place_Holder" data-name="Place Holder"><path class="cls-1" d="M127,127H1L23.35,84.32h79.26C127.15,127.24,122.28,118.72,127,127Z"/><path class="cls-2" d="M88.18,84.32A189.42,189.42,0,0,1,64,106.68,189.42,189.42,0,0,1,39.82,84.32Z"/><path class="cls-3" d="M25.39,39.61a38.61,38.61,0,0,1,77.22,0c0,32.18-38.61,67.07-38.61,67.07S25.39,71.79,25.39,39.61Z"/><path class="cls-4" d="M64,106.68C46.75,91.09,24.68,62.29,25.43,37.62,26.52,59.09,44,81.41,55,93.5a12.17,12.17,0,0,0,18,0C84,81.41,101.48,59.09,102.57,37.62,103.32,62.5,80.93,91.38,64,106.68Z"/><circle class="cls-5" cx="64" cy="39.61" r="28.45"/><path class="cls-6" d="M92.29,42.66a28.45,28.45,0,0,0-56.58,0,28.45,28.45,0,1,1,56.58,0Z"/><polygon class="cls-7" points="80.26 35.55 68.06 35.55 68.06 23.36 59.94 23.36 59.94 35.55 47.74 35.55 47.74 43.68 59.94 43.68 59.94 55.87 68.06 55.87 68.06 43.68 80.26 43.68 80.26 35.55"/><polygon class="cls-2" points="127 127 1 127 4.19 120.9 123.53 120.9 127 127"/><rect class="cls-8" x="59.94" y="49.77" width="8.13" height="6.1"/></g></svg>