<svg xmlns="http://www.w3.org/2000/svg" viewBox="0 0 128 128"><defs><style>.cls-1{fill:#949aaf;}.cls-2{fill:#d4d8e1;}.cls-3{fill:#c7cdd8;}.cls-4{fill:#e2607f;}.cls-5{fill:#dd4e6a;}.cls-6{fill:#9dd5df;}.cls-7{fill:#fff;}</style></defs><title>Prescription</title><g id="Prescription"><path class="cls-1" d="M118.87,72.13v42.68a12.2,12.2,0,0,1-24.39,0V72.13Z"/><path class="cls-2" d="M9.13,1l8.53,4.06L26.19,1l8.53,4.06L43.25,1l8.54,4.06L60.32,1l8.53,4.06L77.39,1l8.55,4.06L94.48,1V114.81A12.2,12.2,0,0,0,106.68,127H21.32A12.21,12.21,0,0,1,9.13,114.81Z"/><path class="cls-3" d="M106.68,127H21.32A12.21,12.21,0,0,1,9.13,114.81v-6.1A12.2,12.2,0,0,0,21.32,120.9H96.13A12.13,12.13,0,0,0,106.68,127Z"/><circle class="cls-4" cx="51.81" cy="35.55" r="16.26"/><path class="cls-5" d="M51.81,51.81A16.26,16.26,0,0,1,35.67,33.52a16.26,16.26,0,0,0,32.27,0A16.26,16.26,0,0,1,51.81,51.81Z"/><rect class="cls-6" x="19.29" y="61.97" width="65.03" height="12.19"/><path class="cls-7" d="M50.81,43.68V27.42a1,1,0,0,1,2,0V43.68A1,1,0,0,1,50.81,43.68Z"/><path class="cls-7" d="M59.94,36.55H43.68a1,1,0,0,1,0-2H59.94A1,1,0,0,1,59.94,36.55Z"/><path class="cls-1" d="M22.82,86.35a1.5,1.5,0,0,1-3,0A1.5,1.5,0,0,1,22.82,86.35Z"/><path class="cls-1" d="M82.29,87.35H31.48a1,1,0,0,1,0-2H82.29A1,1,0,0,1,82.29,87.35Z"/><path class="cls-1" d="M22.82,98.55a1.5,1.5,0,0,1-3,0A1.5,1.5,0,0,1,22.82,98.55Z"/><path class="cls-1" d="M82.29,99.55H31.48a1,1,0,0,1,0-2H82.29A1,1,0,0,1,82.29,99.55Z"/><path class="cls-1" d="M22.82,110.74a1.5,1.5,0,0,1-3,0A1.5,1.5,0,0,1,22.82,110.74Z"/><path class="cls-1" d="M82.29,111.74H31.48a1,1,0,0,1,0-2H82.29A1,1,0,0,1,82.29,111.74Z"/></g></svg>