<svg xmlns="http://www.w3.org/2000/svg" viewBox="0 0 128 128"><defs><style>.cls-1{fill:#c6ccda;}.cls-2{fill:#949aaf;}.cls-3{fill:#6ab891;}.cls-4{fill:#4da67f;}.cls-5{fill:#454b60;}.cls-6{fill:#9dd5df;}.cls-7{fill:#77cacb;}</style></defs><title>Stratcer</title><g id="Stratcer"><path class="cls-1" d="M10.16,51.81V1a1,1,0,0,1,1-1H27.42a1,1,0,0,1,1,1V7.1a1,1,0,0,1-2,0V2H12.16V51.81A1,1,0,0,1,10.16,51.81Z"/><path class="cls-2" d="M24.39,120.9V82.29a1,1,0,0,1,2,0V120.9A1,1,0,0,1,24.39,120.9Z"/><path class="cls-2" d="M101.61,120.9V82.29a1,1,0,0,1,2,0V120.9A1,1,0,0,1,101.61,120.9Z"/><path class="cls-2" d="M102.61,111.74c-.27,0,5.42,2.06-77.57-28.51a1,1,0,0,1,.69-1.88L103,109.8A1,1,0,0,1,102.61,111.74Z"/><path class="cls-2" d="M25.39,111.74A1,1,0,0,1,25,109.8l77.23-28.45a1,1,0,0,1,.69,1.88C20.92,113.45,25.66,111.74,25.39,111.74Z"/><path class="cls-3" d="M7.1,62H120.9a6.1,6.1,0,0,1,6.1,6.1v6.1a0,0,0,0,1,0,0H1a0,0,0,0,1,0,0v-6.1A6.1,6.1,0,0,1,7.1,62Z"/><rect class="cls-4" x="1" y="68.06" width="126" height="6.1"/><rect class="cls-2" x="7.1" y="74.16" width="113.81" height="8.13"/><path class="cls-3" d="M26.4,62H12.18a5.08,5.08,0,0,1,0-10.16H26.4A5.08,5.08,0,1,1,26.4,62Z"/><path class="cls-4" d="M26.4,62H12.18a5.09,5.09,0,0,1-4.66-7.12,5.07,5.07,0,0,0,4.66,3c13.47,0,17.2,1,18.88-3A5.09,5.09,0,0,1,26.4,62Z"/><path class="cls-1" d="M127,75.16H1a1,1,0,0,1,0-2H127A1,1,0,0,1,127,75.16Z"/><path class="cls-1" d="M0,74.17V49.78a1,1,0,0,1,2,0V74.17A1,1,0,0,1,0,74.17Z"/><path class="cls-1" d="M126,74.16V49.77a1,1,0,0,1,2,0V74.16A1,1,0,0,1,126,74.16Z"/><path class="cls-1" d="M100.58,75.16H43.68a1,1,0,0,1-1-1V55.87a7.11,7.11,0,0,1,7.09-7.1H94.48a7.11,7.11,0,0,1,7.1,7.1V74.16A1,1,0,0,1,100.58,75.16Zm-55.9-2h54.9V55.87a5.11,5.11,0,0,0-5.1-5.1H49.77a5.1,5.1,0,0,0-5.09,5.1Z"/><path class="cls-1" d="M56.9,74.16V49.77a1,1,0,0,1,2,0V74.16A1,1,0,0,1,56.9,74.16Z"/><path class="cls-1" d="M85.35,74.16V49.77a1,1,0,0,1,2,0V74.16A1,1,0,0,1,85.35,74.16Z"/><path class="cls-1" d="M71.13,74V49.77a1,1,0,0,1,2,0V74A1,1,0,0,1,71.13,74Z"/><circle class="cls-5" cx="20.29" cy="120.9" r="6.1"/><circle class="cls-5" cx="97.52" cy="120.9" r="6.1"/><path class="cls-6" d="M19.29,7.13H35.55a0,0,0,0,1,0,0V21.35a6.1,6.1,0,0,1-6.1,6.1H25.39a6.1,6.1,0,0,1-6.1-6.1V7.13A0,0,0,0,1,19.29,7.13Z"/><rect class="cls-7" x="19.29" y="7.13" width="16.26" height="4.06"/><path class="cls-6" d="M26.42,31.52v-6.1a1,1,0,0,1,2,0v6.1A1,1,0,0,1,26.42,31.52Z"/></g></svg>