<svg xmlns="http://www.w3.org/2000/svg" viewBox="0 0 128 128"><defs><style>.cls-1{fill:#d4d8e1;}.cls-2{fill:#c7cdd8;}.cls-3{fill:#fbcc88;}.cls-4{fill:#949aaf;}.cls-5{fill:#adb3c4;}.cls-6{fill:#8288a1;}.cls-7{fill:#fff;}</style></defs><title>Syringe</title><g id="Syringe"><path class="cls-1" d="M111.94,38.63,55.55,95,33,72.46c57-57,56.3-56.49,56.4-56.39Z"/><rect class="cls-2" x="94.42" y="13.98" width="7.31" height="31.9" transform="translate(7.56 78.12) rotate(-45)"/><path class="cls-3" d="M95.49,49.34C54.34,90.51,61.86,83,55.55,89.28L38.73,72.46c6.33-6.31,1.9-1.88,22.51-22.51C80.8,52.36,81.55,43.26,95.49,49.34Z"/><rect class="cls-4" x="28.93" y="81.8" width="21.27" height="13.29" transform="translate(74.13 -2.07) rotate(45)"/><rect class="cls-4" x="28.93" y="81.8" width="21.27" height="13.29" transform="translate(74.13 -2.07) rotate(45)"/><rect class="cls-5" x="32.32" y="83.2" width="21.27" height="3.69" transform="translate(72.72 -5.47) rotate(45)"/><polygon class="cls-1" points="30.16 103.48 24.52 97.84 30.16 88.44 39.56 97.84 30.16 103.48"/><rect class="cls-4" x="97.16" y="10.93" width="23.88" height="15.95" transform="translate(18.59 82.68) rotate(-45)"/><rect class="cls-6" x="112.95" y="4.39" width="5.38" height="15.95" transform="translate(25.13 85.39) rotate(-45)"/><path class="cls-1" d="M127,20.81c-.61,0,1,1.4-19.51-19.1A1,1,0,0,1,108.9.29L127.71,19.1A1,1,0,0,1,127,20.81Z"/><path class="cls-1" d="M121.36,49c-.64,0,2.1,2.51-42.08-41.67a1,1,0,0,1,1.41-1.42l41.38,41.38A1,1,0,0,1,121.36,49Z"/><path class="cls-1" d="M1,128a1,1,0,0,1-.71-1.71L26.62,100A1,1,0,0,1,28,101.38C0,129.41,1.63,128,1,128Z"/><path class="cls-7" d="M103.26,47.31l-1.41,1.42L98.08,45a1,1,0,0,1,1.42-1.41Z"/><path class="cls-7" d="M95.74,54.83l-1.41,1.42L88.68,50.6a1,1,0,0,1,1.41-1.41Z"/><path class="cls-7" d="M88.22,62.36,86.8,63.77,83,60a1,1,0,0,1,1.41-1.42C89.62,63.76,87.84,62,88.22,62.36Z"/><path class="cls-7" d="M80.69,69.88l-1.41,1.41-5.64-5.64a1,1,0,0,1,1.41-1.42Z"/><path class="cls-7" d="M73.17,77.4l-1.41,1.41L68,75.05a1,1,0,0,1,1.42-1.41Z"/><path class="cls-7" d="M65.65,84.92l-1.41,1.42-5.65-5.65A1,1,0,0,1,60,79.28Z"/></g></svg>