<svg xmlns="http://www.w3.org/2000/svg" viewBox="0 0 128 128"><defs><style>.cls-1{fill:#d4d8e1;}.cls-2{fill:#7aa8d7;}.cls-3{fill:#949aaf;}.cls-4{fill:#9dd5df;}.cls-5{fill:#c7cdd8;}.cls-6{fill:#5b8dc9;}</style></defs><title>Thermometer</title><g id="Thermometer"><path class="cls-1" d="M126.94,18.28a17.21,17.21,0,0,1-5.06,12.18L70.62,81.72A67.34,67.34,0,0,1,45.73,97.48C16.17,108.06,9.78,133.11,2.32,125.66a4.32,4.32,0,0,1,0-6.09C15,106.9,19,103.47,24,95.57c8.89-14.07,7-23,22.26-38.21,55.19-55.19,52.33-53.11,56.86-55A17.26,17.26,0,0,1,126.94,18.28Z"/><path class="cls-2" d="M126.94,18.28c0,8.26-4.87,12-10.15,17.27L92.42,11.19C97.74,5.88,101.37,1,109.7,1A17.23,17.23,0,0,1,126.94,18.28Z"/><circle class="cls-3" cx="92.42" cy="35.55" r="6.09"/><rect class="cls-4" x="62.91" y="44.97" width="14.36" height="25.84" transform="translate(61.46 -32.61) rotate(45)"/><path class="cls-5" d="M116.79,35.55C67,85.33,67.42,85.7,59.05,91c-14.08,8.88-23,7-38.21,22.25-13.1,13.1-13.07,13.69-15.47,13.69a4.31,4.31,0,0,1-4.31-4.31c0-1,.06.25,2.28.25,2.4,0,2-.25,15.47-13.69C34.07,93.91,43.24,95.61,57,86.92c8.36-5.28,7.47-5.16,56.72-54.41Z"/><path class="cls-6" d="M126.94,18.28c0,8.26-4.87,12-10.15,17.27l-3.05-3,6.11-6.11A17.17,17.17,0,0,0,124,8.59,17.18,17.18,0,0,1,126.94,18.28Z"/><path class="cls-3" d="M15.27,118.8c-7.16,7.16-7.54,8.12-9.9,8.12a4.31,4.31,0,0,1-4.31-4.31c0-2.5,1.47-3.26,8.12-9.91Z"/><path class="cls-3" d="M43.68,85.32a1,1,0,0,1-.71-1.7L53.13,73.45a1,1,0,0,1,1.42,1.42C43.77,85.64,44.28,85.32,43.68,85.32Z"/></g></svg>